<?xml version="1.0" encoding="UTF-8"?>
<svg version="1.1" xmlns="http://www.w3.org/2000/svg" width="1024" height="1024">
<path d="M0 0 C0.66525381 -0.00282738 1.33050762 -0.00565475 2.01592064 -0.00856781 C5.55415594 -0.02344523 9.09235185 -0.03274012 12.63061523 -0.03710938 C15.4758016 -0.04144068 18.32067556 -0.055138 21.16577148 -0.078125 C47.20334742 -0.28392556 72.96440503 1.23597615 98.69921875 5.453125 C99.99609619 5.66146973 101.29297363 5.86981445 102.62915039 6.08447266 C192.16564913 20.80874835 277.21323998 59.80397548 346.63671875 118.203125 C347.1682959 118.64978516 347.69987305 119.09644531 348.24755859 119.55664062 C361.21985118 130.48456792 373.50283329 141.98070257 385.51171875 153.953125 C386.01017303 154.44890045 386.50862732 154.9446759 387.02218628 155.45547485 C392.7811828 161.19098222 398.37116294 167.0082537 403.63671875 173.203125 C404.5857773 174.28643906 405.53624531 175.36852034 406.48828125 176.44921875 C413.67279214 184.68590292 420.40426259 193.20792675 426.95263672 201.95703125 C428.65185085 204.22330698 430.36470342 206.47882935 432.078125 208.734375 C479.43369671 271.52361832 510.54103261 346.81561987 523.94921875 424.140625 C524.06664429 424.81105835 524.18406982 425.4814917 524.30505371 426.17224121 C525.03087652 430.36752295 525.68348595 434.56943391 526.28616333 438.78414917 C526.52664478 440.44356957 526.77741091 442.10152243 527.03683472 443.75808716 C530.23515951 464.51555832 530.1328493 485.28202391 530.08276367 506.23120117 C530.07359772 510.24183068 530.08045997 514.25187659 530.10327148 518.26245117 C530.24260675 542.90397055 529.43907862 566.83428583 525.63671875 591.203125 C525.38251087 592.91573881 525.12849398 594.62838098 524.87475586 596.34106445 C524.28561635 600.18474381 523.60766105 604.00671258 522.88671875 607.828125 C522.76355286 608.48904144 522.64038696 609.14995789 522.51348877 609.8309021 C508.54603393 684.33237489 477.10503796 756.56872827 431.63671875 817.203125 C431.1778125 817.81510742 430.71890625 818.42708984 430.24609375 819.05761719 C413.92161291 840.72356419 396.02436155 860.88219689 376.88671875 880.078125 C376.3909433 880.57657928 375.89516785 881.07503357 375.3843689 881.58859253 C369.64886153 887.34758905 363.83159005 892.93756919 357.63671875 898.203125 C356.55340469 899.15218355 355.47132341 900.10265156 354.390625 901.0546875 C345.44665242 908.855456 336.13946611 916.09843441 326.63671875 923.203125 C325.68345703 923.92048828 325.68345703 923.92048828 324.7109375 924.65234375 C257.85684289 974.8984738 179.12227707 1007.32554822 96.63671875 1020.203125 C95.48533417 1020.38382538 94.33394958 1020.56452576 93.14767456 1020.7507019 C70.10540535 1024.23984664 47.35452423 1024.83275851 24.08056641 1024.72460938 C19.12956394 1024.70182136 14.17942203 1024.71538288 9.22844887 1024.73837757 C-60.36826526 1025.01211014 -128.99779973 1010.20505789 -192.36328125 981.203125 C-193.39662598 980.73052246 -194.4299707 980.25791992 -195.49462891 979.77099609 C-236.98461029 960.62718247 -275.38963457 936.62301663 -310.36328125 907.203125 C-310.8948584 906.75646484 -311.42643555 906.30980469 -311.97412109 905.84960938 C-324.94641368 894.92168208 -337.22939579 883.42554743 -349.23828125 871.453125 C-349.73673553 870.95734955 -350.23518982 870.4615741 -350.74874878 869.95077515 C-356.5077453 864.21526778 -362.09772544 858.3979963 -367.36328125 852.203125 C-368.3123398 851.11981094 -369.26280781 850.03772966 -370.21484375 848.95703125 C-377.39935464 840.72034708 -384.13082509 832.19832325 -390.67919922 823.44921875 C-392.37841335 821.18294302 -394.09126592 818.92742065 -395.8046875 816.671875 C-449.73359854 745.16697292 -481.92938394 658.46304437 -494.56640625 530.83984375 C-494.56923363 530.17458994 -494.572061 529.50933613 -494.57497406 528.82392311 C-494.58985148 525.28568781 -494.59914637 521.7474919 -494.60351562 518.20922852 C-494.60784693 515.36404215 -494.62154425 512.51916819 -494.64453125 509.67407227 C-494.85734804 482.73590074 -493.15075394 456.17405772 -488.61328125 429.578125 C-488.48733582 428.82138489 -488.36139038 428.06464478 -488.23162842 427.28497314 C-473.32484657 338.021991 -434.62632978 253.46481024 -376.36328125 184.203125 C-375.91662109 183.67154785 -375.46996094 183.1399707 -375.00976562 182.59228516 C-364.08183833 169.61999257 -352.58570368 157.33701046 -340.61328125 145.328125 C-340.1175058 144.82967072 -339.62173035 144.33121643 -339.1109314 143.81765747 C-333.37542403 138.05866095 -327.55815255 132.46868081 -321.36328125 127.203125 C-320.27996719 126.25406645 -319.19788591 125.30359844 -318.1171875 124.3515625 C-309.17321492 116.550794 -299.86602861 109.30781559 -290.36328125 102.203125 C-289.72777344 101.72488281 -289.09226562 101.24664062 -288.4375 100.75390625 C-218.79571032 48.41260327 -136.0321175 15.13584007 0 0 Z " fill="#EFDCCA" transform="translate(494.36328125,-0.203125)"/>
<path d="M0 0 C18.75969306 -0.04688259 37.51937411 -0.08206807 56.27911377 -0.10362434 C64.99110888 -0.11390279 73.70306743 -0.12789687 82.41503906 -0.15087891 C90.01528386 -0.17091853 97.61550215 -0.18374132 105.21577263 -0.18817699 C109.23378662 -0.19076661 113.25172484 -0.1967803 117.26971436 -0.21146011 C121.06505941 -0.22521185 124.86029874 -0.22918783 128.65566635 -0.22621536 C130.68510042 -0.22701299 132.71452345 -0.23768126 134.743927 -0.24884033 C147.64555973 -0.22047413 160.30957668 1.01808434 172.6875 4.8125 C173.58194824 5.0803833 174.47639648 5.3482666 175.39794922 5.62426758 C177.93850773 6.39691166 180.47021544 7.19288078 183 8 C184.17433594 8.36867187 185.34867188 8.73734375 186.55859375 9.1171875 C206.46913839 16.06685531 224.86377648 29.4772091 239 45 C239.51820313 45.56074219 240.03640625 46.12148437 240.5703125 46.69921875 C244.72801531 51.3289313 248.6309432 56.17856185 252.5625 61 C253.37593872 61.99676758 253.37593872 61.99676758 254.20581055 63.01367188 C257.41303472 66.9691025 260.51547424 70.98612842 263.55541992 75.07128906 C265.78135364 78.04321342 268.07523052 80.96006412 270.375 83.875 C270.85122803 84.48013428 271.32745605 85.08526855 271.81811523 85.70874023 C274.54872948 89.17425487 277.29742215 92.62438089 280.0625 96.0625 C283.387694 100.20723676 286.63677324 104.40649118 289.86962891 108.62353516 C298.27088317 119.5777091 306.77105348 130.45607151 315.30834961 141.30444336 C318.26521113 145.06197261 321.20557975 148.83177342 324.13671875 152.609375 C326.04837221 155.06206245 327.97065684 157.50611687 329.89453125 159.94921875 C333.95887912 165.11082858 338.00314513 170.2859139 342 175.5 C346.81890567 181.78482327 351.70713968 188.01356114 356.60888672 194.23388672 C359.36870065 197.73765892 362.12299062 201.24577794 364.87695312 204.75415039 C367.15093062 207.65024619 369.42859434 210.54326675 371.71484375 213.4296875 C377.08667206 220.22165433 382.33908215 227.08947313 387.51489258 234.03198242 C391.26995759 239.05716976 395.11167636 244.00636565 399.00048828 248.9284668 C404.7907851 256.25736386 410.46493878 263.67482085 416.12890625 271.1015625 C421.62901143 278.311193 427.14916406 285.50119254 432.76538086 292.62084961 C436.5321539 297.39697944 440.26901046 302.19587797 444 307 C448.23355034 312.45060273 452.47912349 317.89109541 456.75 323.3125 C462.30266481 330.36441454 467.77025447 337.48016528 473.22949219 344.60449219 C477.87015917 350.65833611 482.53127226 356.69422753 487.25 362.6875 C496.2097642 374.06873506 505.14416056 385.46496094 513.796875 397.08203125 C516.75786141 401.00376325 519.79813941 404.86023582 522.84228516 408.7175293 C528.03374607 415.29875172 533.13111488 421.95108955 538.22949219 428.60449219 C542.95138913 434.76430223 547.69768156 440.90260798 552.5 447 C553.86976726 448.74247478 555.23903746 450.48533799 556.60791016 452.22851562 C557.55707274 453.43635914 558.50731363 454.64335588 559.45849609 455.84960938 C560.87299813 457.64601277 562.28095699 459.44736155 563.6875 461.25 C564.12191406 461.79914063 564.55632813 462.34828125 565.00390625 462.9140625 C568 466.77177798 568 466.77177798 568 469 C568.99 469 569.98 469 571 469 C570.94104696 423.33411071 570.86644272 377.66827009 570.77101372 332.00244169 C570.75974632 326.60424846 570.74860774 321.20605498 570.73754883 315.80786133 C570.7342433 314.19591928 570.7342433 314.19591928 570.730871 312.55141274 C570.69555311 295.1789996 570.67065793 277.8065865 570.64965298 260.43415084 C570.62784697 242.59226469 570.59475118 224.7504249 570.55129844 206.90857822 C570.52486425 195.91002921 570.50710834 184.9115379 570.50065396 173.91295872 C570.49537479 166.35834588 570.47907358 158.80380548 570.45433434 151.24923154 C570.4404055 146.89859502 570.43111595 142.54808792 570.43499184 138.19742775 C570.73165879 107.98081172 570.73165879 107.98081172 563.8125 78.75 C563.51206787 77.92701416 563.21163574 77.10402832 562.90209961 76.25610352 C552.01944715 47.38221752 531.84981621 26.61348622 503.98486328 13.890625 C503.3298584 13.59671875 502.67485352 13.3028125 502 13 C501.3694873 12.71640625 500.73897461 12.4328125 500.08935547 12.140625 C492.23161486 8.66921888 484.42745337 6.10389077 476.01367188 4.37988281 C474.0703125 3.95703125 474.0703125 3.95703125 471 3 C470.67 2.01 470.34 1.02 470 0 C514.55 0 559.1 0 605 0 C605 45.87 605 91.74 605 139 C605.99 139 606.98 139 608 139 C608.08378906 138.175 608.16757812 137.35 608.25390625 136.5 C609.16892299 132.20756547 610.85945245 128.83777639 612.9375 125 C613.53812256 123.88177856 613.53812256 123.88177856 614.15087891 122.7409668 C617.85779787 115.99477674 622.08425636 109.77234517 626.74804688 103.65771484 C627.9389147 102.08088322 629.08793656 100.47270445 630.234375 98.86328125 C636.37987933 90.41933254 643.64306309 83.06526932 651 75.6875 C651.50847473 75.17544006 652.01694946 74.66338013 652.54083252 74.13580322 C676.59244371 49.99318646 710.32082923 24.89305692 743 14 C741.69604733 16.86248658 740.29052224 18.91962721 738.125 21.1875 C679.17575688 87.80988841 667.90030874 195.21800674 665.98669434 280.45004272 C665.90218594 284.07892329 665.80366003 287.7074161 665.70507812 291.3359375 C665.6852569 292.06565702 665.66543568 292.79537655 665.64501381 293.54720879 C665.6049502 295.01891034 665.56480763 296.49060974 665.52458572 297.96230698 C665.46519089 300.14738548 665.40697221 302.33249281 665.34896851 304.51760864 C665.02745482 316.53743253 664.6216723 328.5527777 664.12161255 340.56661987 C664.04225219 342.48084743 663.96521984 344.39517333 663.89083862 346.30960083 C663.19413781 364.1478312 661.75229121 381.47633273 657.625 398.875 C657.33367188 400.15890625 657.04234375 401.4428125 656.7421875 402.765625 C655.07222009 409.98750159 653.15357266 417.07501054 650.90625 424.13867188 C650.01423183 426.95506545 649.19317266 429.78645256 648.375 432.625 C638.57940944 461.70324915 617.38945271 488.40982555 589.9375 502.25 C584.40547273 504.96752066 578.97263848 507.41714528 573 509 C572.14664063 509.27585937 571.29328125 509.55171875 570.4140625 509.8359375 C543.24722319 517.60807788 516.39614087 508.85638779 492 497 C492 496.34 492 495.68 492 495 C491.27941406 494.896875 490.55882812 494.79375 489.81640625 494.6875 C469.87735333 489.82026933 446.76537117 464.41669201 434.3671875 448.9296875 C432.3241603 446.40118849 430.23409271 443.92395989 428.11328125 441.46069336 C422.83354258 435.31959331 417.87141439 428.98247282 412.98852539 422.52246094 C409.15732564 417.46865856 405.21274274 412.52529551 401.1875 407.625 C396.96448762 402.4791927 392.94494802 397.25637964 389.08203125 391.83203125 C386.52314055 388.35136378 383.83518992 384.98842171 381.125 381.625 C374.3375056 373.19889037 367.75512031 364.62456425 361.20703125 356.01171875 C359.82564699 354.19521655 358.44413383 352.37881238 357.0625 350.5625 C356.3710791 349.6535498 355.6796582 348.74459961 354.96728516 347.80810547 C350.62606359 342.10980305 346.24352365 336.44797952 341.80322266 330.82666016 C337.55913633 325.4529569 333.38625108 320.02599536 329.22070312 314.59130859 C326.80631895 311.44391738 324.38376185 308.30280321 321.96289062 305.16040039 C319.56452662 302.04392158 317.17647747 298.919895 314.796875 295.7890625 C307.74697194 286.51111307 307.74697194 286.51111307 300.4375 277.4375 C296.87615608 273.14179136 293.51468245 268.7270567 290.1875 264.25 C285.76721834 258.30248225 281.22533572 252.47753022 276.56884766 246.71362305 C272.81772687 242.05724799 269.17557418 237.3265415 265.5625 232.5625 C260.7417315 226.21365244 255.79344884 219.98747822 250.7434082 213.81982422 C246.72508488 208.90914927 242.78979614 203.9397832 238.88452148 198.93896484 C236.11478419 195.39909559 233.29838302 191.90462968 230.4375 188.4375 C227.25904263 184.57592834 224.16477876 180.65870882 221.125 176.6875 C216.25756209 170.33031963 211.37253483 163.99004451 206.37792969 157.73193359 C205.46979805 156.59049386 204.56666446 155.44505709 203.66894531 154.29541016 C196.72264045 145.42586966 189.13167309 138.57438149 180 132 C178.55173828 130.92105469 178.55173828 130.92105469 177.07421875 129.8203125 C164.97660296 121.2197945 151.18074699 116.02733775 137.01733398 111.90185547 C131.1898065 110.1898065 131.1898065 110.1898065 129 108 C128.76863098 106.14291382 128.76863098 106.14291382 128.79223633 103.86083984 C128.79496048 103.00589935 128.79768463 102.15095886 128.80049133 101.27011108 C128.81089951 100.3430838 128.82130768 99.41605652 128.83203125 98.4609375 C128.82635009 96.49869307 128.81913921 94.53645259 128.81054688 92.57421875 C128.80638312 89.4798107 128.81237461 86.38672762 128.84545898 83.29248047 C128.872504 80.30604005 128.85549839 77.32235377 128.83203125 74.3359375 C128.86282524 72.96361465 128.86282524 72.96361465 128.89424133 71.56356812 C128.80090157 65.30695578 127.24828882 62.18854581 122.83769226 57.75283813 C121.92803459 56.88518326 121.92803459 56.88518326 121 56 C119.85081702 54.75307879 118.70457897 53.50343115 117.5625 52.25 C87.93664022 23.35913293 41.39697728 7.93904649 1 3 C0.67 2.01 0.34 1.02 0 0 Z " fill="#020202" transform="translate(126,207)"/>
<path d="M0 0 C1.92835716 -0.00865198 3.85672549 -0.01483776 5.78509521 -0.01997375 C6.85895351 -0.02368138 7.93281181 -0.02738901 9.03921127 -0.03120899 C12.13702058 0.0014443 15.08503698 0.2607267 18.140625 0.76953125 C19.14867187 0.93646484 20.15671875 1.10339844 21.1953125 1.27539062 C22.20335937 1.45263672 23.21140625 1.62988281 24.25 1.8125 C25.78527344 2.0609668 25.78527344 2.0609668 27.3515625 2.31445312 C32.52597182 3.19569893 37.30406807 4.29025181 42.16699219 6.27026367 C45.20890173 7.48127428 48.36039496 8.32887621 51.5 9.25 C58.61703702 11.40328656 65.32801562 14.168768 72.0859375 17.25390625 C74.97582748 18.5719835 77.89856252 19.75274327 80.859375 20.90234375 C86.04058472 22.95740271 90.9516382 25.39359766 95.875 28 C96.77629639 28.47566406 97.67759277 28.95132813 98.60620117 29.44140625 C129.00528177 45.66130751 156.77814347 66.0311582 182.92578125 88.39453125 C185.69699155 90.75864187 188.52927189 93.03843958 191.375 95.3125 C197.3594718 100.17543096 202.92274091 105.46111074 208.53125 110.74609375 C215.09404721 116.97840899 215.09404721 116.97840899 222.20703125 122.55078125 C222.79871094 123.02902344 223.39039063 123.50726562 224 124 C224 124.66 224 125.32 224 126 C224.57492187 126.24621094 225.14984375 126.49242187 225.7421875 126.74609375 C228.35639827 128.19793053 230.06336208 129.90287549 232.125 132.0625 C234.77905 134.91571933 234.77905 134.91571933 238 137 C238 137.66 238 138.32 238 139 C238.58265625 139.25394531 239.1653125 139.50789062 239.765625 139.76953125 C242.24188033 141.13320333 243.80520626 142.64225203 245.75 144.6875 C248.95400529 147.97396131 252.25671374 151.02792107 255.734375 154.01953125 C259.51514688 157.32444736 263.18688977 160.74875686 266.875 164.15625 C290.97622897 186.2287692 318.6390505 211.21644232 349 224 C350.65086475 224.92861142 352.29611298 225.86723694 353.9375 226.8125 C359.78493926 230.0575075 365.82654548 232.30309378 372.09765625 234.5625 C375.42123805 235.76435603 378.64382239 237.12841285 381.875 238.5625 C389.02814499 241.59746329 396.47640581 243.48486078 403.97607422 245.45214844 C405.67327219 245.91155884 407.35641681 246.42246186 409.03515625 246.9453125 C424.02425344 251.60255839 440.98136093 250.12661254 456.5 250.0625 C463.595 250.041875 470.69 250.02125 478 250 C478 273.43 478 296.86 478 321 C478.66 321 479.32 321 480 321 C480 297.57 480 274.14 480 250 C489.24 248.02 498.48 246.04 508 244 C525.82290251 239.5068313 542.82406477 232.69402017 559 224 C560.13179687 223.40960937 561.26359375 222.81921875 562.4296875 222.2109375 C576.51699553 214.56540081 589.61750101 204.84251678 601.08032227 193.64355469 C603.40509644 191.37941319 604.86923348 190.04358884 608 189 C608.69821645 187.68291382 609.36170121 186.34714397 610 185 C611.50024414 183.3659668 611.50024414 183.3659668 613.22265625 181.76171875 C617.03648125 178.05446376 620.24617702 174.05869339 623.4375 169.8125 C623.99590576 169.07652588 624.55431152 168.34055176 625.12963867 167.58227539 C629.67171187 161.54738507 633.93769559 155.36959513 638 149 C639.66417929 154.21488376 638.29915541 159.21221072 637.4375 164.5 C637.25622559 165.61624756 637.07495117 166.73249512 636.88818359 167.88256836 C635.11341399 178.23391576 632.40183104 188.07745282 629 198 C628.76555176 198.70415039 628.53110352 199.40830078 628.28955078 200.13378906 C624.63357296 211.0269001 619.70311616 221.03871197 614 231 C613.61859863 231.6703125 613.23719727 232.340625 612.84423828 233.03125 C596.73190792 260.98385701 573.19505198 283.59999662 547 302 C546.31341309 302.4846875 545.62682617 302.969375 544.91943359 303.46875 C527.11312182 315.89565804 507.12863054 325.9159673 487 334 C486.27522461 334.29455078 485.55044922 334.58910156 484.80371094 334.89257812 C476.33604291 338.31971204 467.86891475 341.52508926 459.08984375 344.078125 C456.58571157 344.82524914 454.1192449 345.62434724 451.64453125 346.4609375 C439.13907665 350.65070123 426.42469338 353.43172285 413.4375 355.6875 C411.70161621 355.99083252 411.70161621 355.99083252 409.93066406 356.30029297 C393.54317172 359.04832122 377.48568842 360.38495285 360.875 360.3125 C359.97958496 360.31034485 359.08416992 360.3081897 358.16162109 360.30596924 C311.52864851 360.12649993 262.42074557 348.00392134 225 319 C223.00044912 317.52022627 221.00043305 316.04108095 219 314.5625 C201.21783581 301.15149843 184.05874459 285.94971095 169.6328125 268.9140625 C167.66083666 266.60241618 165.61155592 264.36854258 163.5625 262.125 C159.88250827 258.04649816 156.41101095 253.84978054 153.0078125 249.5390625 C148.33090044 243.62467955 143.51110362 237.82366318 138.703125 232.015625 C132.7530929 224.82199591 126.85257872 217.6025134 121.11376953 210.23901367 C117.63190363 205.77950292 114.07772953 201.38286292 110.5 197 C106.36559127 191.93457193 102.27659591 186.83906967 98.25 181.6875 C87.10909488 167.45498379 75.40616429 153.74145232 63.19921875 140.4140625 C60.68454663 137.65372969 58.22731674 134.84839714 55.78125 132.02734375 C53.69769421 129.65592828 51.56621005 127.33093751 49.4375 125 C47.95451964 123.3367258 46.47514483 121.67022739 45 120 C44.3709375 119.30777344 43.741875 118.61554688 43.09375 117.90234375 C39.37253969 113.48779472 38.37836008 110.47644843 38.7890625 104.6875 C38.85867188 104.130625 38.92828125 103.57375 39 103 C38.34 103 37.68 103 37 103 C36.99576806 104.24628142 36.99153612 105.49256285 36.98717594 106.77661037 C36.88660087 136.33010972 36.78091101 165.88358616 36.66888306 195.43704408 C36.65511272 199.07090359 36.64138574 202.70476327 36.62768555 206.33862305 C36.62495724 207.06208951 36.62222894 207.78555598 36.61941796 208.53094567 C36.57528735 220.2605402 36.53467292 231.99014443 36.49534739 243.71975594 C36.45494781 255.74649763 36.41079408 267.77322127 36.36312145 279.79993635 C36.33643823 286.55890353 36.31151789 293.31786789 36.29092598 300.07685661 C36.2713993 306.43050721 36.24726766 312.78412319 36.21950912 319.137743 C36.21011758 321.47713724 36.20244994 323.81653909 36.19658089 326.15594482 C36.18835529 329.33483149 36.1740889 332.51363334 36.15821838 335.69248962 C36.15724028 336.63118627 36.15626217 337.56988292 36.15525442 338.53702492 C36.11412121 344.88587879 36.11412121 344.88587879 35 346 C32.49075847 346.10087212 30.00963616 346.13972032 27.5 346.1328125 C26.74912109 346.13376923 25.99824219 346.13472595 25.22460938 346.13571167 C23.63411373 346.13639338 22.04361533 346.13453972 20.453125 346.13037109 C18.01035345 346.12502267 15.56776579 346.13031634 13.125 346.13671875 C11.58333293 346.13605797 10.04166597 346.1347768 8.5 346.1328125 C7.76458984 346.13483673 7.02917969 346.13686096 6.27148438 346.13894653 C1.11495161 346.11495161 1.11495161 346.11495161 0 345 C-0.09754084 343.16511937 -0.12371382 341.32643059 -0.12304783 339.48895931 C-0.12503888 338.28519679 -0.12702993 337.08143427 -0.12908131 335.84119409 C-0.12622772 334.48819964 -0.12328211 333.13520538 -0.12025452 331.7822113 C-0.12069009 330.35829193 -0.12156475 328.93437263 -0.12284368 327.51045376 C-0.12509131 323.57916001 -0.12106372 319.64789323 -0.11606562 315.71660292 C-0.11176513 311.48413378 -0.11320726 307.25166627 -0.1139679 303.01919556 C-0.11449339 295.68001886 -0.11134397 288.34085103 -0.10573006 281.00167656 C-0.09761844 270.39033604 -0.09500019 259.77899983 -0.09374207 249.16765655 C-0.09155101 231.95332134 -0.08488948 214.73899085 -0.07543945 197.5246582 C-0.06626671 180.79809594 -0.05918521 164.07153497 -0.05493164 147.3449707 C-0.05466892 146.31471995 -0.05440619 145.2844692 -0.05413551 144.22299873 C-0.05283051 139.05476479 -0.0515668 133.88653084 -0.05032361 128.71829689 C-0.03994933 85.81219465 -0.02232957 42.90609757 0 0 Z " fill="#E5C7A0" transform="translate(255,491)"/>
<path d="M0 0 C1 3 1 3 0.328125 4.7421875 C-0.20554687 5.79792969 -0.20554687 5.79792969 -0.75 6.875 C-14.29290561 39.74476048 -5.01163468 82.87075284 2.54956055 116.01574707 C3.35121 119.54713242 4.13621764 123.08221587 4.921875 126.6171875 C5.08620026 127.35638931 5.25052551 128.09559113 5.41983032 128.85719299 C5.75623479 130.37089052 6.09254793 131.88460834 6.42877197 133.39834595 C6.93728811 135.68654656 7.44683808 137.9745151 7.95654297 140.26245117 C18.189058 186.23164393 18.189058 186.23164393 20.59033203 202.32958984 C21.1056987 205.68899429 21.66240816 209.04102557 22.21484375 212.39453125 C30.02828692 260.38801291 32.87602838 310.34619829 17 357 C16.67451172 357.96969727 16.34902344 358.93939453 16.01367188 359.93847656 C12.12950936 371.39713602 7.88151747 382.40354704 2 393 C1.64744141 393.64710938 1.29488281 394.29421875 0.93164062 394.9609375 C-17.95916592 429.42609231 -45.95016738 456.82610544 -79.3125 477.25 C-79.92834961 477.63285156 -80.54419922 478.01570313 -81.17871094 478.41015625 C-84.49726652 480.39127272 -86.01791423 481 -90 481 C-90 481.66 -90 482.32 -90 483 C-90.89924194 483.33994995 -90.89924194 483.33994995 -91.81665039 483.68676758 C-94.56586551 484.72710431 -97.31418633 485.76978431 -100.0625 486.8125 C-101.00544922 487.16892578 -101.94839844 487.52535156 -102.91992188 487.89257812 C-106.936344 489.41797886 -110.93891868 490.94430091 -114.875 492.66796875 C-124.42420375 496.73831685 -134.83853396 498.18399502 -145 500 C-146.09828125 500.20882813 -147.1965625 500.41765625 -148.328125 500.6328125 C-149.29234375 500.81585937 -150.2565625 500.99890625 -151.25 501.1875 C-152.49523437 501.42533203 -152.49523437 501.42533203 -153.765625 501.66796875 C-156 502 -156 502 -160 502 C-160 501.34 -160 500.68 -160 500 C-158.26953125 498.87890625 -158.26953125 498.87890625 -155.8125 497.5625 C-148.84234346 493.51467538 -142.96890632 488.37142993 -137 483 C-136.19433594 482.27941406 -135.38867188 481.55882812 -134.55859375 480.81640625 C-109.5062708 457.10857291 -96.37879588 422.44237053 -89.59082031 389.4309082 C-89 387 -89 387 -87.99511719 384.14477539 C-86.90505805 380.69996388 -86.42072936 377.47075113 -86 373.8828125 C-85.91942352 373.20320465 -85.83884705 372.5235968 -85.75582886 371.82339478 C-85.49505428 369.59150369 -85.24602439 367.35856309 -85 365.125 C-84.91284729 364.34193481 -84.82569458 363.55886963 -84.73590088 362.7520752 C-81.94658504 337.48926267 -80.92004112 312.27967742 -80.18414307 286.88867188 C-80.16406441 286.19595184 -80.14398575 285.50323181 -80.12329865 284.78952026 C-80.08278517 283.38882862 -80.04241536 281.9881328 -80.00218964 280.58743286 C-79.41397244 260.15337288 -78.40480216 239.86444926 -76.33056641 219.52294922 C-75.90966068 215.03722567 -75.6460666 210.54953309 -75.3840332 206.05224609 C-73.61963858 176.9671322 -68.63372031 148.09840595 -61 120 C-60.73106934 118.97632324 -60.46213867 117.95264648 -60.18505859 116.89794922 C-48.64530924 73.14571298 -28.73491589 34.6800709 0 0 Z " fill="#6F7957" transform="translate(887,223)"/>
<path d="M0 0 C0.70705078 0.21430664 1.41410156 0.42861328 2.14257812 0.64941406 C33.86724122 10.67464108 57.72334048 34.58689919 77.3125 60.46484375 C79.86725069 63.83924361 82.46950685 67.17524387 85.07568359 70.51000977 C90.70767406 77.7169707 96.26548291 84.97208116 101.73510742 92.30297852 C105.25793083 97.02232166 108.8304839 101.70012478 112.43164062 106.35986328 C115.07047423 109.7787361 117.67015791 113.2239551 120.25 116.6875 C124.10155481 121.84339341 128.04061075 126.92655607 132 132 C136.6222894 137.92362753 141.18872529 143.87848854 145.6796875 149.90234375 C152.96368315 159.62660057 160.39577272 169.23799462 167.875 178.8125 C173.47515674 185.98450739 178.95120738 193.24263031 184.3918457 200.53613281 C188.54941367 206.09821907 192.77860584 211.59727684 197.0625 217.0625 C202.49083864 223.99007949 207.74605599 231.02916218 212.93041992 238.14086914 C217.06687344 243.79616287 221.33683874 249.3248804 225.80151367 254.72558594 C229 258.67733677 229 258.67733677 229 262 C228.071875 261.0409375 228.071875 261.0409375 227.125 260.0625 C219.39684965 252.35593666 210.98070223 245.36464407 202.62158203 238.35986328 C201.07711171 237.0646661 199.53649866 235.76487338 197.99609375 234.46484375 C191.07827381 228.65240116 184.04103493 223.01406416 176.90234375 217.47705078 C175.60876731 216.47266969 174.31716966 215.46573596 173.02734375 214.45654297 C161.99491365 205.82882126 150.67815271 197.73104747 139 190 C138.25057129 189.50145508 137.50114258 189.00291016 136.72900391 188.48925781 C101.72127215 165.34402832 61.70680668 145.8761896 20 139 C19.32646484 138.88430664 18.65292969 138.76861328 17.95898438 138.64941406 C-14.2720562 133.36126378 -51.80672856 134.52526342 -79.3125 153.74804688 C-94.73317989 165.18862073 -105.30451787 180.24265514 -110 199 C-110.53266508 202.66598907 -110.8543013 206.29925295 -111 210 C-111.99 210 -112.98 210 -114 210 C-114.23074219 209.40574219 -114.46148437 208.81148437 -114.69921875 208.19921875 C-115.02535156 207.37035156 -115.35148437 206.54148437 -115.6875 205.6875 C-116.00074219 204.88699219 -116.31398437 204.08648438 -116.63671875 203.26171875 C-117.41697167 201.39492452 -118.21887829 199.53612417 -119.08227539 197.70629883 C-122.66994839 190.0929516 -125.44480501 182.30413428 -128.0625 174.3125 C-128.28132843 173.64814941 -128.50015686 172.98379883 -128.72561646 172.29931641 C-135.08839887 152.94234876 -135.08839887 152.94234876 -137 143 C-137.217771 141.88455811 -137.217771 141.88455811 -137.43994141 140.74658203 C-143.6862917 107.35443872 -142.6065588 70.52121392 -124.5 40.9375 C-123.35915632 39.27366282 -122.1930135 37.62683658 -121 36 C-120.40832031 35.17628906 -119.81664062 34.35257812 -119.20703125 33.50390625 C-104.22144586 13.69821504 -81.83273669 0.39190381 -57.34179688 -3.60449219 C-38.57529981 -5.82554166 -18.13342337 -5.51048065 0 0 Z " fill="#B38D60" transform="translate(257,337)"/>
<path d="M0 0 C6.28698861 0.58979734 12.25508491 1.58030989 18.375 3.125 C19.23351562 3.34091797 20.09203125 3.55683594 20.9765625 3.77929688 C30.22769554 6.193518 39.13442981 9.44095467 48 13 C48.91378418 13.36343506 49.82756836 13.72687012 50.76904297 14.10131836 C58.4253797 17.21025128 65.79125962 20.75882012 73.125 24.5625 C73.70927765 24.86513763 74.2935553 25.16777527 74.89553833 25.47958374 C85.43502289 30.96185105 95.37514249 37.04025335 105 44 C105.57234375 44.41088867 106.1446875 44.82177734 106.734375 45.24511719 C114.06087397 50.53502389 121.06697753 56.20878916 128 62 C128.50872147 62.42297363 129.01744293 62.84594727 129.5415802 63.28173828 C138.16747674 70.47410832 146.30985931 78.01778106 154.20727539 86.00146484 C155.95591224 87.7686071 157.7126699 89.52736615 159.47070312 91.28515625 C164.62409572 96.45478415 169.69949495 101.63800916 174.44067383 107.19335938 C177.31126378 110.51923469 180.35624199 113.68412154 183.375 116.875 C188.23619178 122.03596428 193.04746458 127.23046221 197.76953125 132.51953125 C200.95250084 136.059261 204.18581473 139.55162961 207.42089844 143.04370117 C209.87826392 145.6972984 212.32868376 148.35602356 214.75390625 151.0390625 C220.16274197 157.00688998 225.71954966 162.76535023 231.44726562 168.42797852 C234.22230431 171.18271002 236.90914103 173.95059734 239.4375 176.9375 C244.34319868 182.72054026 249.86705366 187.94945022 255.25830078 193.27416992 C258.96587247 196.94796082 262.64672607 200.64835701 266.32539368 204.3510437 C268.56374023 206.60295071 270.80490615 208.85204381 273.04614258 211.10107422 C274.21925013 212.27920821 275.39145828 213.45823848 276.56274414 214.63818359 C285.21609023 223.38040147 285.21609023 223.38040147 294.37182617 231.58837891 C296.1698586 233.14726682 297.83416674 234.80130958 299.5 236.5 C306.48556135 243.57996083 314.28476526 249.74270947 322 256 C324.06203536 257.67408702 326.12386732 259.34842403 328.18554688 261.02294922 C329.57051737 262.14752237 330.95591249 263.27157283 332.34179688 264.39501953 C343.22360572 273.22360572 343.22360572 273.22360572 347 277 C347 219.91 347 162.82 347 104 C347.33 104 347.66 104 348 104 C348 223.13 348 342.26 348 465 C347.01 464.67 346.02 464.34 345 464 C345.66 464 346.32 464 347 464 C346.67 451.13 346.34 438.26 346 425 C344.35 424.34 342.7 423.68 341 423 C339.03515625 421.03125 339.03515625 421.03125 337.0625 418.5 C336.28777344 417.51644531 335.51304687 416.53289062 334.71484375 415.51953125 C333.80964172 414.34655022 332.90471543 413.17335638 332 412 C330.8978901 410.58665077 329.79497912 409.17392596 328.69140625 407.76171875 C326.28463578 404.67758574 323.88417007 401.58868691 321.48828125 398.49609375 C318.44455195 394.56894261 315.38487001 390.65477182 312.3125 386.75 C311.8705127 386.18821045 311.42852539 385.6264209 310.97314453 385.04760742 C310.09110529 383.92682438 309.20894485 382.8061367 308.32666016 381.68554688 C305.59069744 378.20945438 302.85887106 374.73010903 300.12646484 371.2512207 C297.8245869 368.32085066 295.52123742 365.39166135 293.21484375 362.46484375 C286.26313916 353.63885125 279.39397642 344.75250053 272.57421875 335.82421875 C268.11518467 329.99509538 263.59714508 324.22100548 259 318.5 C252.05637362 309.85670667 245.28994376 301.09479685 238.6875 292.1875 C235.09658828 287.37846981 231.36185718 282.70817776 227.5625 278.0625 C220.90371315 269.91960673 214.44517375 261.64355424 208.171875 253.19921875 C202.51239645 245.58690708 196.72703541 238.12177857 190.71337891 230.78540039 C186.15140183 225.21367113 181.75557343 219.53396199 177.38671875 213.80908203 C174.63010177 210.21286164 171.8451509 206.63858852 169.0625 203.0625 C168.46405273 202.29341309 167.86560547 201.52432617 167.24902344 200.73193359 C160.97247948 192.67208664 154.66304021 184.63821601 148.33203125 176.62109375 C143.37134846 170.33199346 138.47078814 164.00313034 133.625 157.625 C129.33044716 151.97537908 124.94092183 146.42191857 120.4375 140.9375 C115.58506169 135.02550108 110.93478949 128.99404311 106.37426758 122.85473633 C102.31201967 117.39139058 98.13246913 112.03145647 93.91015625 106.69140625 C90.60002636 102.50314863 87.33338206 98.28142504 84.0625 94.0625 C79.11076511 87.68166367 74.1052316 81.34779274 69.04711914 75.05102539 C66.50578527 71.88645047 63.98195189 68.71158594 61.5 65.5 C56.41918978 58.93212337 51.20524087 52.46934578 46 46 C45.18917969 44.99066406 44.37835938 43.98132813 43.54296875 42.94140625 C32.52229367 29.33444315 20.96525697 16.60378005 6.84765625 6.19140625 C4.34550298 4.26588089 2.1650781 2.29028743 0 0 Z " fill="#E5C8A1" transform="translate(349,211)"/>
<path d="M0 0 C44.55 0 89.1 0 135 0 C135 45.87 135 91.74 135 139 C135.99 139 136.98 139 138 139 C138.08378906 138.175 138.16757812 137.35 138.25390625 136.5 C139.16892299 132.20756547 140.85945245 128.83777639 142.9375 125 C143.33791504 124.25451904 143.73833008 123.50903809 144.15087891 122.7409668 C147.85779787 115.99477674 152.08425636 109.77234517 156.74804688 103.65771484 C157.9389147 102.08088322 159.08793656 100.47270445 160.234375 98.86328125 C166.37987933 90.41933254 173.64306309 83.06526932 181 75.6875 C181.7627121 74.9194101 181.7627121 74.9194101 182.54083252 74.13580322 C206.59244371 49.99318646 240.32082923 24.89305692 273 14 C271.69604733 16.86248658 270.29052224 18.91962721 268.125 21.1875 C209.17575688 87.80988841 197.90030874 195.21800674 195.98669434 280.45004272 C195.90218594 284.07892329 195.80366003 287.7074161 195.70507812 291.3359375 C195.67534629 292.43051679 195.67534629 292.43051679 195.64501381 293.54720879 C195.6049502 295.01891034 195.56480763 296.49060974 195.52458572 297.96230698 C195.46519089 300.14738548 195.40697221 302.33249281 195.34896851 304.51760864 C195.02745482 316.53743253 194.6216723 328.5527777 194.12161255 340.56661987 C194.04225219 342.48084743 193.96521984 344.39517333 193.89083862 346.30960083 C193.19413781 364.1478312 191.75229121 381.47633273 187.625 398.875 C187.33367187 400.15890625 187.04234375 401.4428125 186.7421875 402.765625 C185.07222009 409.98750159 183.15357266 417.07501054 180.90625 424.13867188 C180.01423183 426.95506545 179.19317266 429.78645256 178.375 432.625 C171.1536259 454.06167746 156.37478123 477.37203725 138 491 C137.01 491.33 136.02 491.66 135 492 C134.87012405 449.5233145 134.74257767 407.0466225 134.61781773 364.56992165 C134.60281196 359.46157207 134.58778845 354.35322254 134.57275391 349.24487305 C134.56976329 348.2286378 134.56677268 347.21240255 134.56369144 346.16537229 C134.5221258 332.05341102 134.47961741 317.94145289 134.43630803 303.82949688 C134.36136933 279.41107777 134.28840068 254.99265355 134.21875 230.57421875 C134.21600838 229.61453066 134.21326676 228.65484257 134.21044207 227.66607302 C133.99499387 152.11059923 133.93623554 76.55573849 134 1 C133.2753254 1.00493455 132.55065079 1.00986911 131.80401635 1.0149532 C130.25543612 1.025498 130.25543612 1.025498 128.67557144 1.03625584 C127.50461253 1.0442299 126.33365361 1.05220397 125.12721109 1.06041968 C122.48111681 1.07843658 119.83502249 1.09644921 117.18892813 1.11445558 C110.60562505 1.15926038 104.02232228 1.20410893 97.43902083 1.24915125 C93.74063809 1.27445418 90.04225514 1.29972625 86.34387207 1.32498169 C85.24798461 1.33246612 85.24798461 1.33246612 84.129958 1.34010174 C74.76722248 1.40398915 65.40447804 1.46611931 56.04171228 1.52543032 C49.84729535 1.56491077 43.65292367 1.60919828 37.45855713 1.65589905 C34.7845625 1.67513833 32.11059986 1.69281646 29.43658447 1.70826721 C25.38963947 1.7317566 21.34278713 1.76293699 17.29589844 1.79467773 C16.10177212 1.80044799 14.9076458 1.80621824 13.67733383 1.81216335 C12.04434027 1.82682439 12.04434027 1.82682439 10.37835693 1.84178162 C8.95695215 1.85146044 8.95695215 1.85146044 7.50683212 1.8613348 C5.19628091 1.98914274 3.21329792 2.34804178 1 3 C0.67 2.01 0.34 1.02 0 0 Z " fill="#717A58" transform="translate(596,207)"/>
<path d="M0 0 C0.87223709 -0.0033284 1.74447418 -0.0066568 2.6431427 -0.01008606 C4.47782873 -0.01512847 6.31252385 -0.01749522 8.1472168 -0.01733398 C10.95832194 -0.01953226 13.76904169 -0.03774826 16.58007812 -0.05664062 C18.36588408 -0.05957272 20.15169189 -0.06155875 21.9375 -0.0625 C22.77814499 -0.06968552 23.61878998 -0.07687103 24.48490906 -0.08427429 C30.4262636 -0.06087635 30.4262636 -0.06087635 33.76953125 2.16796875 C28.48953125 1.83796875 23.20953125 1.50796875 17.76953125 1.16796875 C17.76953125 77.39796875 17.76953125 153.62796875 17.76953125 232.16796875 C17.43953125 232.16796875 17.10953125 232.16796875 16.76953125 232.16796875 C16.43953125 164.18796875 16.10953125 96.20796875 15.76953125 26.16796875 C15.43953125 92.82796875 15.10953125 159.48796875 14.76953125 228.16796875 C8.06116534 222.57766382 8.06116534 222.57766382 5.08203125 218.66796875 C1.96770732 214.66552962 -1.24398281 210.76852749 -4.54296875 206.91796875 C-9.84113626 200.70213877 -14.91085885 194.32568432 -19.91162109 187.86914062 C-21.16562309 186.25161269 -22.42638173 184.63932958 -23.6875 183.02734375 C-26.22824254 179.76008841 -28.74021804 176.47377657 -31.23046875 173.16796875 C-31.72804687 172.50845215 -32.225625 171.84893555 -32.73828125 171.16943359 C-57.61349491 137.99992917 -80.19172366 98.12728057 -74.7265625 55.2109375 C-72.44324848 43.37684712 -68.30944674 33.17459557 -60.23046875 24.16796875 C-59.62332031 23.47960937 -59.01617187 22.79125 -58.390625 22.08203125 C-46.78881273 9.69727459 -31.54640355 4.34110719 -15.23046875 1.16796875 C-13.93906982 0.90777954 -13.93906982 0.90777954 -12.62158203 0.64233398 C-8.39304969 0.05082654 -4.2642593 0.00568599 0 0 Z " fill="#E8CAA5" transform="translate(237.23046875,489.83203125)"/>
<path d="M0 0 C19.70312675 7.63175115 49.10305785 22.2061157 59 42 C59.11767472 43.4494793 59.17689268 44.90393996 59.20532227 46.35791016 C59.22526749 47.25869293 59.24521271 48.15947571 59.26576233 49.08755493 C59.29083107 50.54855118 59.29083107 50.54855118 59.31640625 52.0390625 C59.33718735 53.03505463 59.35796844 54.03104675 59.37937927 55.05722046 C59.44489042 58.24640854 59.50376704 61.43568058 59.5625 64.625 C59.60568373 66.78386293 59.64929797 68.9427173 59.69335938 71.1015625 C59.80057336 76.4009523 59.90233685 81.70042606 60 87 C59.34 87 58.68 87 58 87 C58 86.34 58 85.68 58 85 C57.195625 85.185625 56.39125 85.37125 55.5625 85.5625 C52.09715579 85.98806859 49.18340718 85.66716956 45.7409668 85.25561523 C8.92398751 81.82216219 -23.93061169 89.84165723 -53 113 C-53.78117187 113.61359375 -54.56234375 114.2271875 -55.3671875 114.859375 C-66.55991816 124.18001192 -74.16559824 136.3205865 -81 149 C-82.32159486 151.34026366 -83.65988049 153.67025378 -85 156 C-85.33 156 -85.66 156 -86 156 C-87.09726391 112.53709508 -75.20984051 68.83986736 -45.0625 36.25 C-43.55824863 34.66931063 -42.04083823 33.10351077 -40.51171875 31.546875 C-38.99762609 29.99757088 -37.51335651 28.42362079 -36.03125 26.84375 C-29.29129612 19.75992092 -22.20543577 14.31619782 -14 9 C-13.12730469 8.38898438 -12.25460938 7.77796875 -11.35546875 7.1484375 C-10.57816406 6.60445312 -9.80085938 6.06046875 -9 5.5 C-8.34 5.0359375 -7.68 4.571875 -7 4.09375 C-4.68794392 2.82934433 -2.59259894 2.39609151 0 2 C0 1.34 0 0.68 0 0 Z " fill="#E6C9A1" transform="translate(196,229)"/>
<path d="M0 0 C3.88481993 2.58987995 4.48835049 5.50633446 5.875 9.75 C6.400872 11.29563065 6.92691628 12.8412027 7.453125 14.38671875 C7.71287109 15.16192871 7.97261719 15.93713867 8.24023438 16.73583984 C9.34257289 20.02089364 10.47729955 23.29297064 11.625 26.5625 C11.98851562 27.61566406 12.35203125 28.66882813 12.7265625 29.75390625 C13.68459765 32.19601426 14.6873598 34.41977114 15.87890625 36.7421875 C18.77692717 42.41172843 21.03219968 48.33951363 23.38085938 54.25195312 C23.74630859 55.16009766 24.11175781 56.06824219 24.48828125 57.00390625 C24.85115455 57.91855369 25.21402784 58.83320112 25.5878973 59.77556515 C26.93970366 63.02529466 26.93970366 63.02529466 28.74859715 66.02272129 C35.25754801 77.75895875 34.94775675 88.84548272 34.79467773 102.00952148 C34.79269994 104.40579164 34.79381793 106.80206603 34.79777527 109.19833374 C34.79956628 114.99390404 34.76943362 120.78865361 34.72471165 126.584037 C34.67437036 133.33581018 34.66416958 140.0874722 34.65619446 146.83940674 C34.64092775 158.87724073 34.59449047 170.91474 34.52807617 182.95239258 C34.46368298 194.63596947 34.41420298 206.31945498 34.38452148 218.00317383 C34.38176289 219.08602244 34.38176289 219.08602244 34.37894856 220.19074678 C34.36981236 223.81281601 34.36096663 227.43488587 34.35226524 231.05695617 C34.27986568 261.03821205 34.15477591 291.01904905 34 321 C22.78 321 11.56 321 0 321 C0 215.07 0 109.14 0 0 Z " fill="#050404" transform="translate(256,516)"/>
<path d="M0 0 C3.35652237 0.65436789 5.81717928 1.95239954 8.75 3.6875 C14.66636014 6.9892871 20.74625297 9.27347644 27.09765625 11.5625 C30.42123805 12.76435603 33.64382239 14.12841285 36.875 15.5625 C44.02814499 18.59746329 51.47640581 20.48486078 58.97607422 22.45214844 C60.67327219 22.91155884 62.35641681 23.42246186 64.03515625 23.9453125 C78.87449235 28.55602628 95.6328646 27.1275272 111 27.0625 C117.93 27.041875 124.86 27.02125 132 27 C132 50.43 132 73.86 132 98 C100.71794872 98 100.71794872 98 86 92 C84.948125 91.7525 83.89625 91.505 82.8125 91.25 C60.18812961 84.91910243 43.77571545 60.64347744 30.95581055 42.50756836 C27.61394442 37.80030568 24.14250423 33.20212507 20.625 28.625 C20.08278809 27.91931885 19.54057617 27.2136377 18.98193359 26.48657227 C17.87941954 25.05206411 16.77688036 23.61757527 15.67431641 22.18310547 C12.87199293 18.52921563 10.08712222 14.8624571 7.3125 11.1875 C6.80734863 10.52379395 6.30219727 9.86008789 5.78173828 9.17626953 C3.55669499 6.22205542 1.47297136 3.41970543 0 0 Z " fill="#050504" transform="translate(600,714)"/>
<path d="M0 0 C7.73840591 0 14.51576951 0.10108843 22 1.375 C22.81855469 1.50132812 23.63710938 1.62765625 24.48046875 1.7578125 C28.40472968 2.39798557 31.45277534 3.16707861 35 5 C35.04631292 16.79582684 35.08186393 28.59163209 35.10362434 40.38753128 C35.11406753 45.86466938 35.12823656 51.34174533 35.15087891 56.81884766 C35.17258811 62.10321413 35.1845646 67.38752078 35.18975449 72.67192841 C35.19345369 74.68937878 35.20067718 76.70682584 35.21146011 78.72425079 C35.22594939 81.54703381 35.22797901 84.36956868 35.22705078 87.19238281 C35.23424133 88.02891891 35.24143188 88.86545502 35.24884033 89.7273407 C35.22387528 96.73003658 35.22387528 96.73003658 33 100 C26.41666137 87.66083736 21.19977679 74.89690098 16.12451172 61.87475586 C15.07267272 59.18578405 14.00524616 56.50377624 12.9296875 53.82421875 C11.04464624 49.12478455 9.20375229 44.40907947 7.375 39.6875 C6.77887468 38.14965085 6.18252676 36.61188797 5.5859375 35.07421875 C5.19994385 34.07781372 5.19994385 34.07781372 4.80615234 33.0612793 C3.8836298 30.70244894 2.94066216 28.35165541 2 26 C1.67 131.27 1.34 236.54 1 345 C0.67 345 0.34 345 0 345 C0 231.15 0 117.3 0 0 Z " fill="#AC8961" transform="translate(255,491)"/>
<path d="M0 0 C0.99 0.495 0.99 0.495 2 1 C2.17320849 45.13762267 2.33586623 89.27527321 2.48431293 133.41298647 C2.50183527 138.6202139 2.51944525 143.82744102 2.53710938 149.03466797 C2.54062461 150.07136205 2.54413985 151.10805614 2.5477616 152.17616519 C2.60493839 168.97675542 2.66921908 185.77731136 2.736111 202.57786539 C2.80455687 219.8082915 2.86540135 237.03873227 2.91914403 254.26921058 C2.95256474 264.90699351 2.99196136 275.54472022 3.03892837 286.18245211 C3.07053932 293.47059001 3.09478724 300.75872887 3.11317255 308.04691204 C3.12401006 312.25595294 3.13816325 316.46491598 3.16103554 320.67391014 C3.18188738 324.52424431 3.19353177 328.37449048 3.19772999 332.2248778 C3.20089925 333.62064533 3.2075011 335.01640998 3.21781154 336.41214302 C3.23129568 338.30424571 3.23125384 340.19643051 3.23047829 342.08858109 C3.23427549 343.14116584 3.23807269 344.1937506 3.24198496 345.27823186 C2.99804449 348.02199494 2.41290802 349.66253118 1 352 C0.67 352 0.34 352 0 352 C0 235.84 0 119.68 0 0 Z " fill="#5C624C" transform="translate(731,347)"/>
<path d="M0 0 C0.33 0 0.66 0 1 0 C1.16132092 6.69970689 0.96927396 13.32611414 0.4140625 20.00390625 C0.35296295 20.74410004 0.2918634 21.48429382 0.22891235 22.24691772 C0.09675639 23.84227791 -0.03556389 25.4376245 -0.16802979 27.03295898 C-2.07090251 50.28941935 -2.72021105 73.56532048 -3.29723358 96.88429356 C-3.3692322 99.77863077 -3.44410998 102.67289113 -3.51895905 105.56715584 C-3.56940004 107.58843593 -3.61411108 109.60978712 -3.65838623 111.63121033 C-3.68877991 112.83830154 -3.71917358 114.04539276 -3.75048828 115.2890625 C-3.77474884 116.34818848 -3.7990094 117.40731445 -3.82400513 118.49853516 C-4 121 -4 121 -5 123 C-5.12834874 124.53458881 -5.20211322 126.07396259 -5.24609375 127.61328125 C-5.27896484 128.53173828 -5.31183594 129.45019531 -5.34570312 130.39648438 C-5.40652873 132.32866803 -5.46386411 134.26096495 -5.51757812 136.19335938 C-5.83999496 144.89861391 -5.83999496 144.89861391 -8 149 C-8.33 149 -8.66 149 -9 149 C-10.19969354 47.73663677 -10.19969354 47.73663677 0 0 Z " fill="#6C7457" transform="translate(795,403)"/>
<path d="M0 0 C18.75969306 -0.04688259 37.51937411 -0.08206807 56.27911377 -0.10362434 C64.99110888 -0.11390279 73.70306743 -0.12789687 82.41503906 -0.15087891 C90.01528386 -0.17091853 97.61550215 -0.18374132 105.21577263 -0.18817699 C109.23378662 -0.19076661 113.25172484 -0.1967803 117.26971436 -0.21146011 C121.06505941 -0.22521185 124.86029874 -0.22918783 128.65566635 -0.22621536 C130.68510042 -0.22701299 132.71452345 -0.23768126 134.743927 -0.24884033 C143.97158226 -0.22855193 152.88592901 0.67969634 162 2 C162 2.33 162 2.66 162 3 C160.84594099 2.99861731 160.84594099 2.99861731 159.66856766 2.99720669 C140.9572258 2.97513257 122.24588655 2.95857921 103.53453445 2.94818783 C94.48590884 2.94302921 85.43729191 2.93599474 76.38867188 2.92456055 C68.50288028 2.91460049 60.61709497 2.90814341 52.73129725 2.90591151 C48.5549598 2.90460665 44.37864035 2.90153499 40.20230865 2.89426994 C36.27241481 2.8874889 32.34254639 2.88538731 28.41264725 2.88689232 C26.96947466 2.88661693 25.52630123 2.88462415 24.0831337 2.88079453 C22.11396142 2.87582485 20.14477554 2.87761002 18.17559814 2.87974548 C17.07313374 2.87882369 15.97066933 2.8779019 14.83479691 2.87695217 C12.35838713 2.98444377 10.38011913 3.40105531 8 4 C5.65885633 3.72686657 3.32249342 3.40197001 1 3 C0.67 2.01 0.34 1.02 0 0 Z " fill="#1F1F1F" transform="translate(126,207)"/>
<path d="M0 0 C44.55 0 89.1 0 135 0 C135 46.2 135 92.4 135 140 C134.67 140 134.34 140 134 140 C134 94.13 134 48.26 134 1 C102.19625 1.2165625 102.19625 1.2165625 69.75 1.4375 C63.05170898 1.48060303 56.35341797 1.52370605 49.45214844 1.56811523 C43.45534802 1.61136161 43.45534802 1.61136161 37.45855713 1.65589905 C34.7845625 1.67513833 32.11059986 1.69281646 29.43658447 1.70826721 C25.38963947 1.7317566 21.34278713 1.76293699 17.29589844 1.79467773 C16.10177212 1.80044799 14.9076458 1.80621824 13.67733383 1.81216335 C12.04434027 1.82682439 12.04434027 1.82682439 10.37835693 1.84178162 C8.95695215 1.85146044 8.95695215 1.85146044 7.50683212 1.8613348 C5.19628091 1.98914274 3.21329792 2.34804178 1 3 C0.67 2.01 0.34 1.02 0 0 Z " fill="#4E4E4E" transform="translate(596,207)"/>
<path d="M0 0 C0.33 0 0.66 0 1 0 C1.19604486 34.23488851 1.37633474 68.46981987 1.53537826 102.70490005 C1.55415155 106.74304588 1.57305582 110.78119109 1.59204102 114.81933594 C1.59581856 115.62328669 1.59959611 116.42723744 1.60348812 117.25555034 C1.66503452 130.28753554 1.73720036 143.31944153 1.8132638 156.35134916 C1.89102723 169.71484169 1.95744121 183.07835555 2.01323253 196.44195807 C2.04804272 204.69367071 2.09179498 212.94523781 2.14684484 221.19684066 C2.18370464 226.84875862 2.20957949 232.50065902 2.22667392 238.15267108 C2.23687801 241.4177652 2.25368403 244.68259538 2.28024101 247.94760323 C2.30822205 251.48091448 2.31791708 255.01380349 2.32279968 258.54721069 C2.33542916 259.5880501 2.34805863 260.62888951 2.36107081 261.70126951 C2.35858106 262.64228501 2.35609131 263.58330052 2.35352612 264.55283165 C2.35770304 265.36923036 2.36187996 266.18562907 2.36618346 267.02676713 C2.24534292 267.67793398 2.12450238 268.32910083 2 269 C1.01 269.66 0.02 270.32 -1 271 C-0.67 181.57 -0.34 92.14 0 0 Z " fill="#818A65" transform="translate(734,427)"/>
<path d="M0 0 C0.33 0 0.66 0 1 0 C1.11118012 8.22508788 0.79966341 16.33631032 0.16015625 24.53515625 C0.07374374 25.69389755 -0.01266876 26.85263885 -0.10169983 28.04649353 C-0.37611738 31.71882475 -0.65639295 35.39067531 -0.9375 39.0625 C-1.3035351 43.88651478 -1.66619998 48.71077307 -2.02734375 53.53515625 C-2.11543304 54.69463776 -2.20352234 55.85411926 -2.29428101 57.04873657 C-2.68765145 62.32245136 -3.04727108 67.59114641 -3.28173828 72.87451172 C-3.32101944 73.75876328 -3.3603006 74.64301483 -3.40077209 75.55406189 C-3.46731744 77.17006321 -3.52557826 78.78643706 -3.57371521 80.40309143 C-3.72106029 84.10683144 -3.89241887 85.8386283 -6 89 C-6.29734284 69.4363658 -6.449946 49.94033801 -4.6875 30.4375 C-4.6285556 29.75923157 -4.56961121 29.08096313 -4.50888062 28.38214111 C-3.65178203 18.75179018 -2.05635306 9.43399276 0 0 Z " fill="#61694B" transform="translate(795,403)"/>
<path d="M0 0 C0.33 0 0.66 0 1 0 C1.30777689 27.11460884 1.41968789 54.1780091 -0.3125 81.25 C-0.3714444 82.23993958 -0.43038879 83.22987915 -0.49111938 84.24981689 C-0.6606965 87.02739418 -0.85110407 89.80256711 -1.05078125 92.578125 C-1.10093384 93.39431305 -1.15108643 94.2105011 -1.20275879 95.05142212 C-1.64304797 100.53613562 -1.64304797 100.53613562 -3.55932617 103.02636719 C-4.03474854 103.34766602 -4.5101709 103.66896484 -5 104 C-5.14101614 97.02753532 -4.91377505 90.08717823 -4.5625 83.125 C-4.52326416 82.30475342 -4.48402832 81.48450684 -4.44360352 80.6394043 C-4.40162842 79.853479 -4.35965332 79.06755371 -4.31640625 78.2578125 C-4.27974854 77.5580127 -4.24309082 76.85821289 -4.20532227 76.13720703 C-4 74 -4 74 -3.51342773 71.84594727 C-2.75670714 67.65141946 -2.64266707 63.46084678 -2.46875 59.20703125 C-2.42721802 58.24320023 -2.38568604 57.2793692 -2.34289551 56.28633118 C-1.841621 44.0360965 -1.64996125 31.77837533 -1.44775391 19.52026367 C-1.396394 16.4756577 -1.33918439 13.43120561 -1.28125 10.38671875 C-1.26767456 9.45470139 -1.25409912 8.52268402 -1.2401123 7.56242371 C-1.11325264 1.11325264 -1.11325264 1.11325264 0 0 Z " fill="#5F684A" transform="translate(810,479)"/>
<path d="M0 0 C0.33 0 0.66 0 1 0 C1.57333244 21.41323143 -1.00072544 41.2162139 -6 62 C-6.99 62 -7.98 62 -9 62 C-9.31291762 57.51484744 -8.7803274 53.84226216 -7.65234375 49.48828125 C-5.49374079 40.38616148 -4.48760727 31.15243289 -3.375 21.875 C-3.0512783 19.21104019 -2.72556858 16.5473552 -2.39639282 13.88406372 C-2.19368099 12.24066918 -1.99429193 10.59686041 -1.79867554 8.9526062 C-1.4169813 5.83203989 -0.99714772 2.99144315 0 0 Z " fill="#667052" transform="translate(786,559)"/>
<path d="M0 0 C0.66 0 1.32 0 2 0 C-0.43443191 17.24733118 -29.29132229 40.37862991 -42.20703125 50.20703125 C-48.65773502 55.01293406 -55.32290602 59.51680833 -62 64 C-62.66 63.67 -63.32 63.34 -64 63 C-62.2711195 61.58298411 -60.54188254 60.16640314 -58.8125 58.75 C-57.84957031 57.96109375 -56.88664063 57.1721875 -55.89453125 56.359375 C-48.32605531 50.19019893 -48.32605531 50.19019893 -45.75 48.6875 C-39.55460022 44.88577741 -34.00156177 40.26480187 -29 35 C-27.15341906 33.1811574 -25.30390498 31.36535032 -23.453125 29.55078125 C-21.90358196 28.04486026 -21.90358196 28.04486026 -21 26 C-20.34 26 -19.68 26 -19 26 C-18.73316406 25.4121875 -18.46632813 24.824375 -18.19140625 24.21875 C-16.97761933 21.95832058 -15.67791931 20.3761967 -13.9375 18.5 C-6.15739557 9.82248892 -6.15739557 9.82248892 0 0 Z " fill="#DBC19F" transform="translate(859,732)"/>
<path d="M0 0 C0.33 0.66 0.66 1.32 1 2 C-0.1241176 3.29243468 -1.24932592 4.58392075 -2.375 5.875 C-3.00148438 6.59429688 -3.62796875 7.31359375 -4.2734375 8.0546875 C-5.47426834 9.4076598 -6.7208345 10.7208345 -8 12 C-4.7 12 -1.4 12 2 12 C-1.57842037 16.66750483 -5.51761006 17.06965504 -11 18 C-11.95390625 18.185625 -12.9078125 18.37125 -13.890625 18.5625 C-18.0301742 19.35941856 -21.76836105 20 -26 20 C-26 19.34 -26 18.68 -26 18 C-24.234375 16.84375 -24.234375 16.84375 -21.75 15.5 C-16.15398783 12.27950297 -11.51308438 8.39397848 -6.6640625 4.171875 C-4.45811668 2.37347928 -2.59650819 1.10751534 0 0 Z " fill="#687052" transform="translate(753,705)"/>
<path d="M0 0 C0.66 0.33 1.32 0.66 2 1 C1.6682842 7.06566027 -1.16170312 10.43897734 -4.8125 15 C-5.39346436 15.74113037 -5.97442871 16.48226074 -6.57299805 17.24584961 C-14.51495531 27.3010712 -22.68433056 37.17751306 -32 46 C-32.66 45.01 -33.32 44.02 -34 43 C-33.06027344 42.07767578 -33.06027344 42.07767578 -32.1015625 41.13671875 C-30.87566406 39.92435547 -30.87566406 39.92435547 -29.625 38.6875 C-28.40683594 37.48673828 -28.40683594 37.48673828 -27.1640625 36.26171875 C-24.87395158 33.99990063 -24.87395158 33.99990063 -23 31 C-22.34 31 -21.68 31 -21 31 C-20.566875 30.1028125 -20.566875 30.1028125 -20.125 29.1875 C-19 27 -19 27 -17 24 C-16.34 24 -15.68 24 -15 24 C-14.73316406 23.42378906 -14.46632813 22.84757813 -14.19140625 22.25390625 C-12.57275071 19.19172839 -10.47323706 16.61994256 -8.33984375 13.90234375 C-6.81914723 11.9370042 -6.81914723 11.9370042 -6 9 C-5.34 9 -4.68 9 -4 9 C-3.855625 8.38125 -3.71125 7.7625 -3.5625 7.125 C-3 5 -3 5 -2 3 C-1.34 3 -0.68 3 0 3 C0 2.01 0 1.02 0 0 Z " fill="#61674B" transform="translate(878,626)"/>
<path d="M0 0 C1.21332065 3.63996196 0.66422619 4.44148115 -0.8125 7.875 C-1.16957031 8.71804687 -1.52664063 9.56109375 -1.89453125 10.4296875 C-2.25933594 11.27789062 -2.62414062 12.12609375 -3 13 C-3.31710937 13.89976562 -3.63421875 14.79953125 -3.9609375 15.7265625 C-5.46634828 19.02035602 -7.78264258 19.48594945 -11 21 C-14.31140743 23.77234111 -15.86135394 25.65916177 -17.5 29.6875 C-19 33 -19 33 -21.6875 34.4375 C-22.450625 34.623125 -23.21375 34.80875 -24 35 C-20.74346687 23.99907467 -12.82444409 15.31850988 -5.41796875 6.8125 C-3.51030502 4.59356965 -1.71387058 2.36867163 0 0 Z " fill="#676E51" transform="translate(887,223)"/>
<path d="M0 0 C48.18 0 96.36 0 146 0 C146 0.33 146 0.66 146 1 C99.14 1 52.28 1 4 1 C4 1.66 4 2.32 4 3 C2.68 2.67 1.36 2.34 0 2 C0 1.34 0 0.68 0 0 Z " fill="#636363" transform="translate(126,207)"/>
<path d="M0 0 C43.23 0 86.46 0 131 0 C131 0.33 131 0.66 131 1 C70.115 1.495 70.115 1.495 8 2 C8.66 2.66 9.32 3.32 10 4 C5.38308839 3.47535095 3.90012114 2.92509086 0 0 Z " fill="#151515" transform="translate(599,208)"/>
<path d="M0 0 C0.66 0.33 1.32 0.66 2 1 C2.19348574 7.78067042 2.37092005 14.56162357 2.53710938 21.34301758 C2.59556952 23.65073185 2.65772716 25.9583555 2.72363281 28.26586914 C2.81763431 31.57942202 2.89840789 34.89307148 2.9765625 38.20703125 C3.00875885 39.2414888 3.0409552 40.27594635 3.0741272 41.3417511 C3.09429901 42.3025206 3.11447083 43.2632901 3.13525391 44.25317383 C3.16856308 45.52225334 3.16856308 45.52225334 3.20254517 46.81697083 C3 49 3 49 1 52 C0.93941406 51.01257813 0.87882813 50.02515625 0.81640625 49.0078125 C0.73261719 47.72648437 0.64882813 46.44515625 0.5625 45.125 C0.44068359 43.21074219 0.44068359 43.21074219 0.31640625 41.2578125 C0.20793973 38.11699848 0.20793973 38.11699848 -1 36 C-1.09863171 33.55411979 -1.13986454 31.13739328 -1.1328125 28.69140625 C-1.13376923 27.96888168 -1.13472595 27.24635712 -1.13571167 26.50193787 C-1.13639252 24.97288933 -1.13454486 23.44383791 -1.13037109 21.91479492 C-1.12502921 19.57529183 -1.13031524 17.23598141 -1.13671875 14.89648438 C-1.1360578 13.41145791 -1.13477629 11.92643156 -1.1328125 10.44140625 C-1.13483673 9.7413295 -1.13686096 9.04125275 -1.13894653 8.31996155 C-1.12423541 5.26773217 -0.97335025 2.92005075 0 0 Z " fill="#606949" transform="translate(877,253)"/>
<path d="M0 0 C0.495 1.485 0.495 1.485 1 3 C-3.85095745 8.15583606 -8.9832333 12.46751811 -14.75 16.5625 C-15.93263428 17.40566772 -15.93263428 17.40566772 -17.13916016 18.26586914 C-30.37540259 27.58924736 -30.37540259 27.58924736 -35 29 C-37.2890625 28.12890625 -37.2890625 28.12890625 -39 27 C-34.2428005 24.10992682 -29.50597972 21.24879565 -24.5625 18.6875 C-19.83088805 16.09220667 -15.84820317 12.76022891 -11.73046875 9.29296875 C-7.90706874 6.08218791 -3.95929737 3.04034934 0 0 Z " fill="#656A4F" transform="translate(842,671)"/>
<path d="M0 0 C0.66 0 1.32 0 2 0 C2.25089365 7.27591594 2.25089365 7.27591594 1.06396484 10.70141602 C-0.05744966 14.17810976 -0.66719212 17.503583 -1.21875 21.11328125 C-1.43078796 22.45641205 -1.64303342 23.79951011 -1.85546875 25.14257812 C-2.18113949 27.24016454 -2.50389483 29.33813456 -2.82275391 31.43676758 C-3.13459722 33.47605252 -3.45724538 35.51339867 -3.78125 37.55078125 C-3.96751953 38.76419189 -4.15378906 39.97760254 -4.34570312 41.2277832 C-4.66958008 42.60003052 -4.66958008 42.60003052 -5 44 C-5.99 44.495 -5.99 44.495 -7 45 C-8.13373424 30.07249921 -4.47457315 14.16948164 0 0 Z " fill="#60694A" transform="translate(803,354)"/>
<path d="M0 0 C4.2984934 0.53827288 6.67262455 1.97650003 10.0625 4.625 C15.08164099 8.42012704 20.27046961 11.58924544 25.76171875 14.65234375 C26.50035156 15.09707031 27.23898437 15.54179688 28 16 C28 16.33 28 16.66 28 17 C29.65 17.33 31.3 17.66 33 18 C33 18.66 33 19.32 33 20 C27.82041352 20.44732792 24.5663926 19.08272024 20.25 16.4375 C19.34290283 15.89875244 19.34290283 15.89875244 18.41748047 15.34912109 C7.2898568 8.65725119 7.2898568 8.65725119 3 5 C3 4.34 3 3.68 3 3 C2.01 2.67 1.02 2.34 0 2 C0 1.34 0 0.68 0 0 Z " fill="#F0DAB9" transform="translate(656,790)"/>
<path d="M0 0 C0.99 0 1.98 0 3 0 C3.38896011 5.13427344 2.24368551 8.21770997 -0.125 12.75 C-0.43832275 13.35473145 -0.75164551 13.95946289 -1.07446289 14.58251953 C-3.83545298 19.84837561 -6.83427899 24.96731532 -10 30 C-10.99 29.67 -11.98 29.34 -13 29 C-11.95402023 25.02527687 -10.36912581 21.87538334 -8.1875 18.4375 C-4.57261775 12.61993766 -2.27977824 6.43583415 0 0 Z " fill="#646A4D" transform="translate(893,596)"/>
<path d="M0 0 C0.33 0 0.66 0 1 0 C1.26128296 13.82588813 0.93947209 27.57525572 0.125 41.375 C0.0660556 42.43108963 0.0660556 42.43108963 0.00592041 43.5085144 C-0.44558493 51.46812409 -1.1130627 59.23230104 -3 67 C-3.33 67 -3.66 67 -4 67 C-3.9278125 66.43796875 -3.855625 65.8759375 -3.78125 65.296875 C-2.70470057 55.5481218 -2.91368039 45.79248016 -3 36 C-3.33 36 -3.66 36 -4 36 C-4.37903226 28.7983871 -4.37903226 28.7983871 -2.53125 24.90625 C-0.35586513 20.11860172 -0.4365218 15.24661119 -0.3125 10.0625 C-0.26125977 8.6074707 -0.26125977 8.6074707 -0.20898438 7.12304688 C-0.12711426 4.74881363 -0.05776922 2.37492123 0 0 Z " fill="#858B73" transform="translate(789,526)"/>
<path d="M0 0 C33 0 66 0 100 0 C100 0.33 100 0.66 100 1 C98.22807281 1.0154612 98.22807281 1.0154612 96.42034912 1.03123474 C85.29613756 1.12892638 74.17198247 1.23165652 63.04786301 1.33933926 C57.3286405 1.3945395 51.60941285 1.44795496 45.89013672 1.49731445 C40.37231222 1.54500063 34.8545499 1.59734512 29.33679962 1.65294075 C27.23005977 1.67334499 25.12330287 1.69206126 23.0165329 1.70907402 C20.06922744 1.73316064 17.12203927 1.76320958 14.17480469 1.79467773 C12.8638961 1.80331093 12.8638961 1.80331093 11.52650452 1.81211853 C10.72166122 1.82190735 9.91681793 1.83169617 9.08758545 1.84178162 C8.04227221 1.85146044 8.04227221 1.85146044 6.97584152 1.8613348 C4.88700416 2.00793009 3.01262984 2.43456688 1 3 C0.67 2.01 0.34 1.02 0 0 Z " fill="#616161" transform="translate(596,207)"/>
<path d="M0 0 C1.88667171 3.1653704 2.18022316 5.16499479 1.79296875 8.80859375 C1.6547168 10.17661133 1.6547168 10.17661133 1.51367188 11.57226562 C1.40603516 12.51779297 1.29839844 13.46332031 1.1875 14.4375 C1.09146484 15.37916016 0.99542969 16.32082031 0.89648438 17.29101562 C0.53292667 20.74847376 0.17153625 24.15746843 -0.52246094 27.56616211 C-1.34373475 31.75188737 -1.36038692 36.03730455 -1.51757812 40.29296875 C-1.70155076 44.00713326 -1.89121596 45.83682395 -4 49 C-4.27801042 38.91439966 -3.83709932 28.93694987 -3.125 18.875 C-3.04652832 17.70155029 -2.96805664 16.52810059 -2.88720703 15.3190918 C-2.80325684 14.20058838 -2.71930664 13.08208496 -2.6328125 11.9296875 C-2.55949707 10.93179199 -2.48618164 9.93389648 -2.41064453 8.90576172 C-1.96591163 5.75878732 -1.08854866 2.98008874 0 0 Z " fill="#5E6749" transform="translate(815,422)"/>
<path d="M0 0 C0.66 0 1.32 0 2 0 C6.77553612 27.94514191 6.77553612 27.94514191 6 41 C5.5359375 40.0409375 5.5359375 40.0409375 5.0625 39.0625 C4.1654837 37.06389179 4.1654837 37.06389179 3 36 C2.78560146 34.56230145 2.62947855 33.11578751 2.5 31.66796875 C2.37625 30.34635742 2.37625 30.34635742 2.25 28.99804688 C2.1675 28.07056641 2.085 27.14308594 2 26.1875 C1.8361254 24.36823592 1.66955511 22.5492122 1.5 20.73046875 C1.4278125 19.91989014 1.355625 19.10931152 1.28125 18.27416992 C1.01388174 16.11224688 0.52915267 14.10926511 0 12 C-0.06743348 9.91765408 -0.08514472 7.83331443 -0.0625 5.75 C-0.04896484 4.13351562 -0.04896484 4.13351562 -0.03515625 2.484375 C-0.02355469 1.66453125 -0.01195312 0.8446875 0 0 Z " fill="#5E6648" transform="translate(905,429)"/>
<path d="M0 0 C0.66 0 1.32 0 2 0 C0.63644686 3.01977134 -0.93655758 5.20407795 -3.1875 7.625 C-6.70856027 11.52095396 -9.5798417 15.68461422 -12.421875 20.09375 C-12.94265625 20.7228125 -13.4634375 21.351875 -14 22 C-14.99 22 -15.98 22 -17 22 C-15.54955729 17.89041233 -13.48889248 14.56741255 -11 11 C-11.66 11 -12.32 11 -13 11 C-13 10.34 -13 9.68 -13 9 C-12.34 9 -11.68 9 -11 9 C-11 8.01 -11 7.02 -11 6 C-10.28972656 5.65066406 -9.57945312 5.30132812 -8.84765625 4.94140625 C-7.92855469 4.48636719 -7.00945313 4.03132812 -6.0625 3.5625 C-5.14597656 3.11003906 -4.22945312 2.65757812 -3.28515625 2.19140625 C-1.09471096 1.19474606 -1.09471096 1.19474606 0 0 Z " fill="#5B6248" transform="translate(867,221)"/>
<path d="M0 0 C3.89415552 -0.16570875 7.16870171 -0.03505493 10.9375 0.96875 C16.93469127 2.35503542 22.93010182 2.45514708 29.0625 2.625 C30.79016602 2.68300781 30.79016602 2.68300781 32.55273438 2.7421875 C35.36833796 2.83565152 38.1839486 2.92141252 41 3 C41 3.66 41 4.32 41 5 C37.08334973 5.02953391 33.16672887 5.04697503 29.25 5.0625 C28.15816406 5.07087891 27.06632813 5.07925781 25.94140625 5.08789062 C5.44137088 5.14854162 5.44137088 5.14854162 0 2 C0 1.34 0 0.68 0 0 Z " fill="#F5DEBC" transform="translate(691,810)"/>
<path d="M0 0 C0.33 0 0.66 0 1 0 C1.52987175 5.33885928 -0.01757829 8.2874809 -3.125 12.4375 C-3.53443848 13.00299561 -3.94387695 13.56849121 -4.36572266 14.15112305 C-7.39462768 18.29252931 -10.41423082 22.32885536 -14 26 C-14.99 26 -15.98 26 -17 26 C-15.59753509 21.84482472 -13.61477177 19.11088519 -10.75 15.8125 C-7.00315 11.36462646 -3.93179801 6.86985033 -1.09375 1.80078125 C-0.7328125 1.20652344 -0.371875 0.61226562 0 0 Z " fill="#5F664A" transform="translate(759,662)"/>
<path d="M0 0 C0.66 0.33 1.32 0.66 2 1 C-6.33333333 9.33333333 -14.66666667 17.66666667 -23 26 C-23.33 25.34 -23.66 24.68 -24 24 C-21.63989184 18.71413792 -17.17673058 14.88292809 -13.125 10.875 C-12.41730469 10.15957031 -11.70960938 9.44414062 -10.98046875 8.70703125 C-4.06078298 1.81311713 -4.06078298 1.81311713 0 0 Z " fill="#60684B" transform="translate(790,272)"/>
<path d="M0 0 C0.33 0 0.66 0 1 0 C1.02187378 0.98504517 1.02187378 0.98504517 1.04418945 1.98999023 C1.38268405 15.79889528 2.1619417 29.38721575 4.0715332 43.07592773 C4.20519287 44.05891846 4.33885254 45.04190918 4.4765625 46.0546875 C4.60111816 46.91562012 4.72567383 47.77655273 4.85400391 48.66357422 C5.00173487 51.02776378 4.70782365 52.75326003 4 55 C3.505 53.515 3.505 53.515 3 52 C2.34 52.99 1.68 53.98 1 55 C-0.02044065 43.00665868 -0.11981056 31.09231167 -0.0625 19.0625 C-0.05746985 17.20377726 -0.05290965 15.34505319 -0.04882812 13.48632812 C-0.03795435 8.99085168 -0.02077523 4.49544113 0 0 Z " fill="#767D64" transform="translate(879,262)"/>
<path d="M0 0 C0.33 0 0.66 0 1 0 C1.05864392 3.66659815 1.09381108 7.33307364 1.125 11 C1.14175781 12.02996094 1.15851562 13.05992187 1.17578125 14.12109375 C1.21401983 20.12455155 0.75493524 25.2515507 -1 31 C-1.66 31 -2.32 31 -3 31 C-3.30941409 20.80652461 -3.25996479 9.77989438 0 0 Z " fill="#60684A" transform="translate(786,559)"/>
<path d="M0 0 C0.99 0.33 1.98 0.66 3 1 C2.55197021 1.41773682 2.10394043 1.83547363 1.64233398 2.26586914 C-0.42714504 4.19679672 -2.49482853 6.12963706 -4.5625 8.0625 C-5.26697266 8.71927734 -5.97144531 9.37605469 -6.69726562 10.05273438 C-11.22016393 14.28383279 -15.65160885 18.5896978 -20 23 C-20.33 22.34 -20.66 21.68 -21 21 C-15.22365995 12.77309145 -8.65726504 5.26225914 0 0 Z " fill="#E0C6A1" transform="translate(192,501)"/>
<path d="M0 0 C0.66 0.33 1.32 0.66 2 1 C1.01 2.485 1.01 2.485 0 4 C-0.99 4 -1.98 4 -3 4 C-3 4.66 -3 5.32 -3 6 C-3.94875 6.433125 -4.8975 6.86625 -5.875 7.3125 C-9.20041937 8.79302201 -9.20041937 8.79302201 -11 12 C-16.33333333 15 -16.33333333 15 -19 15 C-19 15.66 -19 16.32 -19 17 C-20.65 17.66 -22.3 18.32 -24 19 C-18.79875765 10.48887616 -9.54617748 3.18205916 0 0 Z " fill="#666D51" transform="translate(823,247)"/>
<path d="M0 0 C2.73540935 0.36512029 3.82577457 0.81486112 5.74609375 2.85546875 C6.30425781 3.62503906 6.86242187 4.39460937 7.4375 5.1875 C9.52176472 8.01293645 11.60826956 10.74799862 13.9375 13.375 C16 16 16 16 16 19 C12.62797529 18.7804263 11.81669999 17.79785606 9.4921875 15.234375 C8.60921231 14.08093894 7.73711988 12.91910618 6.875 11.75 C6.43285156 11.17636719 5.99070312 10.60273437 5.53515625 10.01171875 C3.12294739 6.81244476 1.27295802 3.80457117 0 0 Z " fill="#E3CFB3" transform="translate(635,765)"/>
<path d="M0 0 C21.78 0 43.56 0 66 0 C66 0.33 66 0.66 66 1 C45.54 1 25.08 1 4 1 C4 1.66 4 2.32 4 3 C2.68 2.67 1.36 2.34 0 2 C0 1.34 0 0.68 0 0 Z " fill="#707171" transform="translate(126,207)"/>
<path d="M0 0 C0.66 0.33 1.32 0.66 2 1 C0.41643485 8.76186858 -1.39547042 15.91902057 -5 23 C-5.33 23 -5.66 23 -6 23 C-5.8590651 20.56212615 -5.71245458 18.12482147 -5.5625 15.6875 C-5.52318359 14.99720703 -5.48386719 14.30691406 -5.44335938 13.59570312 C-5.25072585 10.52838465 -4.97677283 7.93031848 -4 5 C-3.34 5 -2.68 5 -2 5 C-1.855625 4.360625 -1.71125 3.72125 -1.5625 3.0625 C-1 1 -1 1 0 0 Z " fill="#6E7557" transform="translate(830,338)"/>
<path d="M0 0 C1.32 0.33 2.64 0.66 4 1 C4 1.66 4 2.32 4 3 C2.92878906 3.42152344 1.85757813 3.84304688 0.75390625 4.27734375 C-0.64328302 4.83059319 -2.04041551 5.38398602 -3.4375 5.9375 C-4.49807617 6.35418945 -4.49807617 6.35418945 -5.58007812 6.77929688 C-9.04673881 7.96222034 -9.04673881 7.96222034 -12 10 C-14.67058851 10.14115161 -17.32432238 10.04247107 -20 10 C-20 9.34 -20 8.68 -20 8 C-18.06441401 7.32779649 -16.12645628 6.66241923 -14.1875 6 C-13.10855469 5.62875 -12.02960937 5.2575 -10.91796875 4.875 C-8 4 -8 4 -5 4 C-5 3.34 -5 2.68 -5 2 C-3.35 2 -1.7 2 0 2 C0 1.34 0 0.68 0 0 Z " fill="#646B4D" transform="translate(787,705)"/>
<path d="M0 0 C4.76652994 5.53532509 5.15022664 9.59942262 5.5625 16.75 C5.60568359 17.44738281 5.64886719 18.14476562 5.69335938 18.86328125 C5.79889596 20.57531922 5.8998991 22.28763561 6 24 C5.01 24.66 4.02 25.32 3 26 C2.87625 24.72125 2.7525 23.4425 2.625 22.125 C2.24807302 18.65071657 1.67602598 15.29002794 0.9375 11.875 C0.07881113 7.8041787 -0.18045903 4.15055778 0 0 Z " fill="#6B7357" transform="translate(898,391)"/>
<path d="M0 0 C0.99 0 1.98 0 3 0 C2.34086901 4.35026453 0.76137815 7.98405783 -1 12 C-1.33 13.11375 -1.66 14.2275 -2 15.375 C-2.33 16.24125 -2.66 17.1075 -3 18 C-3.99 18.33 -4.98 18.66 -6 19 C-6.3718693 13.90229172 -5.23363859 10.68534545 -3 6.125 C-2.1646875 4.39636719 -2.1646875 4.39636719 -1.3125 2.6328125 C-0.879375 1.76398438 -0.44625 0.89515625 0 0 Z " fill="#6B7456" transform="translate(850,278)"/>
<path d="M0 0 C0.33 0 0.66 0 1 0 C0.70590493 7.73470033 -0.72676526 13.98157575 -4 21 C-4.66 21 -5.32 21 -6 21 C-7.6968806 16.89663419 -6.17966396 13.93481809 -4.6875 9.9375 C-4.23761719 8.70902344 -3.78773438 7.48054687 -3.32421875 6.21484375 C-2 3 -2 3 0 0 Z " fill="#5D6648" transform="translate(776,623)"/>
<path d="M0 0 C0.33 0 0.66 0 1 0 C1.33 2.97 1.66 5.94 2 9 C2.33 9 2.66 9 3 9 C3 12.3 3 15.6 3 19 C2.34 19 1.68 19 1 19 C0.34 23.95 -0.32 28.9 -1 34 C-1.33 34 -1.66 34 -2 34 C-2.28189885 22.50479125 -1.47773994 11.39970808 0 0 Z " fill="#7B8269" transform="translate(814,405)"/>
<path d="M0 0 C0.66 0.33 1.32 0.66 2 1 C0.85578886 15.42308253 0.85578886 15.42308253 -1 20 C-1.99 20.33 -2.98 20.66 -4 21 C-4.40566938 13.96839747 -3.07523451 7.72031901 -1 1 C-0.67 0.67 -0.34 0.34 0 0 Z " fill="#636C4F" transform="translate(812,320)"/>
<path d="M0 0 C0.33 0 0.66 0 1 0 C0.99476318 0.74161377 0.98952637 1.48322754 0.98413086 2.24731445 C0.96336386 5.60236771 0.9503407 8.95740744 0.9375 12.3125 C0.92912109 13.47974609 0.92074219 14.64699219 0.91210938 15.84960938 C0.90888672 16.96787109 0.90566406 18.08613281 0.90234375 19.23828125 C0.89448853 20.7857605 0.89448853 20.7857605 0.88647461 22.36450195 C0.88365 25.10946274 0.88365 25.10946274 2 28 C1.96380806 30.21049247 1.85126486 32.42028508 1.6875 34.625 C1.60886719 35.79289063 1.53023437 36.96078125 1.44921875 38.1640625 C1.30097656 39.09992187 1.15273438 40.03578125 1 41 C0.01 41.495 0.01 41.495 -1 42 C-0.67 38.04 -0.34 34.08 0 30 C-0.66 30 -1.32 30 -2 30 C-1.47703281 19.98573465 -0.92041114 9.98744003 0 0 Z " fill="#7F866B" transform="translate(805,557)"/>
<path d="M0 0 C0.33 0 0.66 0 1 0 C1.35021655 8.88512349 0.89452883 16.55762426 -2 25 C-2.33 25 -2.66 25 -3 25 C-3.21178968 16.83433114 -3.35709844 8.89714001 -1 1 C-0.67 0.67 -0.34 0.34 0 0 Z " fill="#5E6647" transform="translate(818,394)"/>
<path d="M0 0 C0.33 0 0.66 0 1 0 C0.65568432 10.02077369 -0.0404125 19.33945967 -3 29 C-3.66 29 -4.32 29 -5 29 C-4.00384154 19.10873251 -2.77056563 9.58615706 0 0 Z " fill="#5F6949" transform="translate(823,363)"/>
<path d="M0 0 C0.66 0 1.32 0 2 0 C2.40652968 5.42039575 1.03993514 9.07015675 -1 14 C-1.99 14 -2.98 14 -4 14 C-4 15.32 -4 16.64 -4 18 C-4.66 18 -5.32 18 -6 18 C-5.46274105 14.62294375 -4.88935377 11.303314 -4 8 C-3.34 8 -2.68 8 -2 8 C-1.7834375 6.576875 -1.7834375 6.576875 -1.5625 5.125 C-1 2 -1 2 0 0 Z " fill="#677051" transform="translate(823,291)"/>
<path d="M0 0 C1.46726798 3.81489674 0.43336419 6.29011622 -1 10 C-1.66 10 -2.32 10 -3 10 C-3.2165625 10.928125 -3.2165625 10.928125 -3.4375 11.875 C-4 14 -4 14 -5 16 C-5.66 16 -6.32 16 -7 16 C-7.39213671 11.55578397 -6.25321274 8.81312925 -4 5 C-3.34 4.67 -2.68 4.34 -2 4 C-0.86649466 1.98330173 -0.86649466 1.98330173 0 0 Z " fill="#676F51" transform="translate(789,649)"/>
<path d="M0 0 C13.86 0 27.72 0 42 0 C42 0.33 42 0.66 42 1 C40.90010742 1.02505615 39.80021484 1.0501123 38.66699219 1.07592773 C34.58175235 1.17018206 30.49667539 1.27035865 26.41162109 1.37231445 C24.64440728 1.41559514 22.8771535 1.45727505 21.10986328 1.49731445 C18.5679114 1.55518351 16.02615941 1.61882981 13.484375 1.68359375 C12.30134796 1.70866249 12.30134796 1.70866249 11.09442139 1.73423767 C7.58040451 1.8288914 4.38480368 2.06273524 1 3 C0.67 2.01 0.34 1.02 0 0 Z " fill="#696969" transform="translate(596,207)"/>
<path d="M0 0 C0.99 0 1.98 0 3 0 C2.46515599 5.34844008 0.53309233 9.35796103 -2 14 C-2.99 14 -3.98 14 -5 14 C-4.28269264 10.76834156 -3.18684926 7.81292078 -1.9375 4.75 C-1.57527344 3.85796875 -1.21304688 2.9659375 -0.83984375 2.046875 C-0.56269531 1.37140625 -0.28554688 0.6959375 0 0 Z " fill="#61674B" transform="translate(767,645)"/>
<path d="M0 0 C1.13732426 3.40401948 0.83989957 5.77456664 0.0625 9.25 C-0.13214844 10.14203125 -0.32679688 11.0340625 -0.52734375 11.953125 C-0.68332031 12.62859375 -0.83929687 13.3040625 -1 14 C-1.99 14 -2.98 14 -4 14 C-4.33 15.32 -4.66 16.64 -5 18 C-4.55031129 12.11854503 -4.01464919 6.56991247 -2 1 C-1.34 0.67 -0.68 0.34 0 0 Z " fill="#60684A" transform="translate(903,572)"/>
<path d="M0 0 C0.33 0 0.66 0 1 0 C1.84681133 5.08086796 2.09038099 9.84828377 2 15 C1.67 15 1.34 15 1 15 C0.67 18.96 0.34 22.92 0 27 C-0.33 27 -0.66 27 -1 27 C-1.22616462 23.25085209 -1.42782662 19.50077551 -1.625 15.75 C-1.68945312 14.68652344 -1.75390625 13.62304688 -1.8203125 12.52734375 C-1.871875 11.50253906 -1.9234375 10.47773438 -1.9765625 9.421875 C-2.02893066 8.47924805 -2.08129883 7.53662109 -2.13525391 6.56542969 C-1.99211927 3.85052215 -1.3910908 2.30740658 0 0 Z " fill="#676F53" transform="translate(911,462)"/>
<path d="M0 0 C1.51171875 1.35546875 1.51171875 1.35546875 3 3 C2.68960041 6.8282616 1.2606282 10.38619915 0 14 C-0.66 13.34 -1.32 12.68 -2 12 C-2.66 13.32 -3.32 14.64 -4 16 C-5 14 -5 14 -4.00390625 10.7421875 C-3.53110016 9.4502948 -3.05028031 8.16131362 -2.5625 6.875 C-2.31951172 6.21628906 -2.07652344 5.55757813 -1.82617188 4.87890625 C-1.22421679 3.25008662 -0.61297588 1.62470425 0 0 Z " fill="#767C61" transform="translate(837,308)"/>
<path d="M0 0 C0.66 0 1.32 0 2 0 C1.41190166 3.98042168 0.17968323 6.86247219 -1.875 10.3125 C-2.38804687 11.19550781 -2.90109375 12.07851563 -3.4296875 12.98828125 C-3.94789063 13.65214844 -4.46609375 14.31601562 -5 15 C-5.99 15 -6.98 15 -8 15 C-8 14.01 -8 13.02 -8 12 C-7.34 12 -6.68 12 -6 12 C-5.88527344 11.42765625 -5.77054688 10.8553125 -5.65234375 10.265625 C-4.93817644 7.78528344 -3.92692128 5.93631303 -2.5625 3.75 C-2.13066406 3.04359375 -1.69882812 2.3371875 -1.25390625 1.609375 C-0.84011719 1.07828125 -0.42632813 0.5471875 0 0 Z " fill="#676E53" transform="translate(848,244)"/>
<path d="M0 0 C0.33 0 0.66 0 1 0 C1.27733386 8.5511272 0.52016163 16.58481953 -1 25 C-1.33 25 -1.66 25 -2 25 C-2.20705918 16.3725342 -2.21462689 8.40371809 0 0 Z " fill="#5D6648" transform="translate(795,403)"/>
<path d="M0 0 C0 0.99 0 1.98 0 3 C1.32 3.33 2.64 3.66 4 4 C2.2508503 4.33776684 0.50063855 4.67003671 -1.25 5 C-2.71179688 5.2784375 -2.71179688 5.2784375 -4.203125 5.5625 C-7 6 -7 6 -11 6 C-11 5.34 -11 4.68 -11 4 C-4.5 0 -4.5 0 0 0 Z " fill="#676C57" transform="translate(738,719)"/>
<path d="M0 0 C0.33 0 0.66 0 1 0 C1.59720137 5.82271337 -0.471757 9.9209404 -3 15 C-3.66 15 -4.32 15 -5 15 C-5.125 8.25 -5.125 8.25 -4 6 C-3.34 6 -2.68 6 -2 6 C-1.34 4.02 -0.68 2.04 0 0 Z " fill="#666E52" transform="translate(795,632)"/>
<path d="M0 0 C0.33 0 0.66 0 1 0 C1.02712066 1.43739513 1.04645067 2.87493863 1.0625 4.3125 C1.07410156 5.11300781 1.08570313 5.91351563 1.09765625 6.73828125 C1 9 1 9 0 12 C0.66 12 1.32 12 2 12 C2.33 11.01 2.66 10.02 3 9 C2.67 10.98 2.34 12.96 2 15 C1.34 15 0.68 15 0 15 C-0.66 18.3 -1.32 21.6 -2 25 C-2.33 25 -2.66 25 -3 25 C-3.16032995 19.12123504 -2.6092534 13.76611905 -1.5 8 C-1.35691406 7.22527344 -1.21382812 6.45054687 -1.06640625 5.65234375 C-0.71727671 3.76704421 -0.35954684 1.88334061 0 0 Z " fill="#7B8268" transform="translate(818,380)"/>
<path d="M0 0 C0.33 0.66 0.66 1.32 1 2 C-0.36325084 4.46627158 -1.76699996 6.77769919 -3.3125 9.125 C-3.93801758 10.11306641 -3.93801758 10.11306641 -4.57617188 11.12109375 C-5.65786234 12.78762164 -6.82335857 14.39909887 -8 16 C-8.66 16 -9.32 16 -10 16 C-9.18391622 9.06328787 -4.91399044 4.64099097 0 0 Z " fill="#646C51" transform="translate(754,311)"/>
<path d="M0 0 C0.99 0.66 1.98 1.32 3 2 C-0.3 5.3 -3.6 8.6 -7 12 C-7.66 11.01 -8.32 10.02 -9 9 C-6.03 6.03 -3.06 3.06 0 0 Z " fill="#676D53" transform="translate(853,660)"/>
<path d="M0 0 C1.32 0.33 2.64 0.66 4 1 C4 5.03124183 3.89077602 5.70830921 1.6875 8.75 C1.04361328 9.67039063 1.04361328 9.67039063 0.38671875 10.609375 C-0.07089844 11.06828125 -0.52851562 11.5271875 -1 12 C-1.99 12 -2.98 12 -4 12 C-2.54955729 7.89041233 -0.48889248 4.56741255 2 1 C1.34 0.67 0.68 0.34 0 0 Z " fill="#646C4E" transform="translate(854,231)"/>
<path d="M0 0 C6.92307692 4.30769231 6.92307692 4.30769231 9 8 C9 9.32 9 10.64 9 12 C8.34 12 7.68 12 7 12 C7 11.34 7 10.68 7 10 C6.34 10 5.68 10 5 10 C3.7109375 8.57421875 3.7109375 8.57421875 2.375 6.6875 C1.92898438 6.07261719 1.48296875 5.45773437 1.0234375 4.82421875 C0 3 0 3 0 0 Z " fill="#E9D5B8" transform="translate(610,731)"/>
<path d="M0 0 C0.33 0.66 0.66 1.32 1 2 C-0.28655265 3.81613362 -1.57939995 5.62780954 -2.875 7.4375 C-3.95394531 8.95150391 -3.95394531 8.95150391 -5.0546875 10.49609375 C-7 13 -7 13 -9 14 C-8.55183136 9.07014496 -6.17966006 5.64833828 -3 2 C-2.01 1.34 -1.02 0.68 0 0 Z " fill="#616A4C" transform="translate(771,683)"/>
<path d="M0 0 C1.32 0.33 2.64 0.66 4 1 C4.2226746 2.43534841 4.42761906 3.87345525 4.625 5.3125 C4.74101563 6.11300781 4.85703125 6.91351563 4.9765625 7.73828125 C5 10 5 10 3 13 C-0.42857143 4.57142857 -0.42857143 4.57142857 0 0 Z " fill="#687155" transform="translate(893,373)"/>
<path d="M0 0 C0.99 0.33 1.98 0.66 3 1 C-3.15034169 9.44646925 -3.15034169 9.44646925 -7 13 C-7.3077917 9.86162389 -7.27813784 8.40656372 -5.46875 5.76171875 C-4.8190625 5.07722656 -4.169375 4.39273437 -3.5 3.6875 C-2.8503125 2.99011719 -2.200625 2.29273438 -1.53125 1.57421875 C-1.0259375 1.05472656 -0.520625 0.53523438 0 0 Z " fill="#666C52" transform="translate(763,298)"/>
<path d="M0 0 C5.52706913 0.72724594 10.69960141 2.33445973 16 4 C16 4.33 16 4.66 16 5 C13.69 5 11.38 5 9 5 C9 5.66 9 6.32 9 7 C7.35 6.67 5.7 6.34 4 6 C4.99 5.67 5.98 5.34 7 5 C7 4.34 7 3.68 7 3 C5.02 3 3.04 3 1 3 C0.67 2.01 0.34 1.02 0 0 Z " fill="#B7A58D" transform="translate(682,805)"/>
<path d="M0 0 C0.33 0 0.66 0 1 0 C1.21432579 6.64409958 0.51233701 12.53205867 -1 19 C-1.33 19 -1.66 19 -2 19 C-3.23852969 11.85234068 -2.85888741 6.68688919 0 0 Z " fill="#7C836C" transform="translate(911,539)"/>
<path d="M0 0 C9.24 0 18.48 0 28 0 C28 0.33 28 0.66 28 1 C20.08 1 12.16 1 4 1 C4 1.66 4 2.32 4 3 C2.68 2.67 1.36 2.34 0 2 C0 1.34 0 0.68 0 0 Z " fill="#878786" transform="translate(126,207)"/>
<path d="M0 0 C1.14926266 0.95421808 2.29430541 1.91352045 3.4375 2.875 C4.07558594 3.40867187 4.71367188 3.94234375 5.37109375 4.4921875 C7 6 7 6 8 8 C6.68 8.33 5.36 8.66 4 9 C2.02 6.69 0.04 4.38 -2 2 C-1.34 2 -0.68 2 0 2 C0 1.34 0 0.68 0 0 Z " fill="#DBC6AB" transform="translate(651,782)"/>
<path d="M0 0 C0.33 0 0.66 0 1 0 C1.3152595 5.98993047 0.68219822 9.63560356 -2 15 C-2.33 15 -2.66 15 -3 15 C-2.88529863 13.24929483 -2.75780972 11.49942464 -2.625 9.75 C-2.55539062 8.77546875 -2.48578125 7.8009375 -2.4140625 6.796875 C-2.01534751 4.10366811 -1.36492937 2.33036721 0 0 Z " fill="#606849" transform="translate(827,346)"/>
<path d="M0 0 C-3.14591933 2.80045623 -5.067064 3.35261589 -9.25 3.1875 C-10.14203125 3.16042969 -11.0340625 3.13335938 -11.953125 3.10546875 C-12.96632813 3.05326172 -12.96632813 3.05326172 -14 3 C-9.61458424 -0.51589367 -5.50467013 -1.90546274 0 0 Z " fill="#5B6544" transform="translate(755,718)"/>
<path d="M0 0 C0.99 0.66 1.98 1.32 3 2 C2.67 4.31 2.34 6.62 2 9 C1.34 9 0.68 9 0 9 C-0.66 10.65 -1.32 12.3 -2 14 C-3.25127906 10.45332822 -2.72285053 8.27746562 -1.5625 4.75 C-1.27503906 3.85796875 -0.98757813 2.9659375 -0.69140625 2.046875 C-0.46324219 1.37140625 -0.23507812 0.6959375 0 0 Z " fill="#757C63" transform="translate(795,624)"/>
<path d="M0 0 C0.33 0 0.66 0 1 0 C1.37369729 7.47394574 0.04061541 13.82140651 -2 21 C-2.33 21 -2.66 21 -3 21 C-3.43230491 13.65081658 -1.81774185 7.09784913 0 0 Z " fill="#8A9177" transform="translate(822,359)"/>
<path d="M0 0 C0 3 0 3 -1.96875 5.04296875 C-2.8040625 5.75066406 -3.639375 6.45835937 -4.5 7.1875 C-5.3353125 7.90292969 -6.170625 8.61835937 -7.03125 9.35546875 C-7.6809375 9.89816406 -8.330625 10.44085937 -9 11 C-9.66 10.67 -10.32 10.34 -11 10 C-9.92492371 8.70145279 -8.83956264 7.41141639 -7.75 6.125 C-7.14671875 5.40570312 -6.5434375 4.68640625 -5.921875 3.9453125 C-4.02912366 2.02947882 -2.46342273 1.03550955 0 0 Z " fill="#5B6143" transform="translate(753,705)"/>
<path d="M0 0 C1.31157516 2.62315032 0.89649988 4.23033436 0.5625 7.125 C0.46066406 8.03507813 0.35882812 8.94515625 0.25390625 9.8828125 C0.12822266 10.93082031 0.12822266 10.93082031 0 12 C-0.99 12 -1.98 12 -3 12 C-3.36923077 4.61538462 -3.36923077 4.61538462 -1.5 1.5 C-1.005 1.005 -0.51 0.51 0 0 Z " fill="#5E674A" transform="translate(802,605)"/>
<path d="M0 0 C2 2 2 2 2.375 5.375 C2 9 2 9 0 11.4375 C-0.99 12.2109375 -0.99 12.2109375 -2 13 C-1.85769192 11.58297487 -1.71099254 10.1663904 -1.5625 8.75 C-1.48128906 7.96109375 -1.40007813 7.1721875 -1.31640625 6.359375 C-1.02365007 4.17635361 -0.57935581 2.1226818 0 0 Z " fill="#5E6747" transform="translate(806,340)"/>
<path d="M0 0 C4.875 4.625 4.875 4.625 6 8 C5.01 8.33 4.02 8.66 3 9 C1.35 6.69 -0.3 4.38 -2 2 C-1.34 2 -0.68 2 0 2 C0 1.34 0 0.68 0 0 Z " fill="#D8C4A9" transform="translate(619,741)"/>
<path d="M0 0 C2.27113803 0.14100857 4.54190725 0.28796755 6.8125 0.4375 C8.07707031 0.51871094 9.34164062 0.59992187 10.64453125 0.68359375 C14 1 14 1 17 2 C17 2.66 17 3.32 17 4 C10.99769998 4.48667297 5.68299011 2.69882978 0 1 C0 0.67 0 0.34 0 0 Z " fill="#8A8682" transform="translate(661,737)"/>
<path d="M0 0 C-3.08632611 3.2626876 -5.93483504 6.02235218 -10 8 C-10.66 7.67 -11.32 7.34 -12 7 C-3.58823529 -1.79411765 -3.58823529 -1.79411765 0 0 Z " fill="#666D4F" transform="translate(762,699)"/>
<path d="M0 0 C0 0.66 0 1.32 0 2 C-1.45264038 2.8638129 -2.9123163 3.71580454 -4.375 4.5625 C-5.59316406 5.27599609 -5.59316406 5.27599609 -6.8359375 6.00390625 C-7.55007813 6.33261719 -8.26421875 6.66132813 -9 7 C-9.66 6.67 -10.32 6.34 -11 6 C-5.2 0 -5.2 0 0 0 Z " fill="#697056" transform="translate(841,237)"/>
<path d="M0 0 C0.66 0.33 1.32 0.66 2 1 C1.40312566 4.34249629 0.26396123 6.46436342 -2 9 C-2.66 9 -3.32 9 -4 9 C-3.71848913 7.68528432 -3.42446661 6.37324233 -3.125 5.0625 C-2.96257813 4.33160156 -2.80015625 3.60070312 -2.6328125 2.84765625 C-2 1 -2 1 0 0 Z " fill="#626B4C" transform="translate(781,666)"/>
<path d="M0 0 C0.33 0.99 0.66 1.98 1 3 C-3.30769231 7.92307692 -3.30769231 7.92307692 -6.8125 8.3125 C-7.534375 8.209375 -8.25625 8.10625 -9 8 C-6.14723863 5.06799526 -3.34920216 2.35684596 0 0 Z " fill="#606649" transform="translate(842,671)"/>
<path d="M0 0 C0.33 0 0.66 0 1 0 C1.29344873 4.98862849 1.05887078 7.96229058 -2 12 C-2.33 12 -2.66 12 -3 12 C-2.14285714 3.42857143 -2.14285714 3.42857143 0 0 Z " fill="#5C6346" transform="translate(833,325)"/>
<path d="M0 0 C-1.74107143 7.09821429 -1.74107143 7.09821429 -5 10 C-4.88637738 8.5199159 -4.75877092 7.04089926 -4.625 5.5625 C-4.55539062 4.73878906 -4.48578125 3.91507812 -4.4140625 3.06640625 C-4.27742187 2.38449219 -4.14078125 1.70257813 -4 1 C-2 0 -2 0 0 0 Z " fill="#666E51" transform="translate(843,302)"/>
<path d="M0 0 C0.66 0 1.32 0 2 0 C1.25 6.625 1.25 6.625 -1 10 C-1.66 10 -2.32 10 -3 10 C-2.49287967 6.28111761 -1.88391785 3.26545761 0 0 Z " fill="#646C4D" transform="translate(834,267)"/>
<path d="M0 0 C1.23593891 3.70781672 0.5678132 4.67510253 -0.9375 8.1875 C-1.31777344 9.08855469 -1.69804688 9.98960937 -2.08984375 10.91796875 C-2.54037109 11.94857422 -2.54037109 11.94857422 -3 13 C-3.33 11.68 -3.66 10.36 -4 9 C-4.66 9 -5.32 9 -6 9 C-4.47291037 5.56404834 -2.40072955 2.88087546 0 0 Z " fill="#727765" transform="translate(887,223)"/>
<path d="M0 0 C-1.36983503 3.16115776 -1.9890638 3.9927092 -5 6 C-5.99 5.67 -6.98 5.34 -8 5 C-8 5.66 -8 6.32 -8 7 C-9.65 7 -11.3 7 -13 7 C-4.25 0 -4.25 0 0 0 Z " fill="#7C7F6F" transform="translate(869,221)"/>
<path d="M0 0 C0.33 0 0.66 0 1 0 C1.33 4.29 1.66 8.58 2 13 C1.34 12.67 0.68 12.34 0 12 C-0.66 12.66 -1.32 13.32 -2 14 C-1.85795259 12.41632253 -1.71119847 10.83306682 -1.5625 9.25 C-1.48128906 8.36828125 -1.40007813 7.4865625 -1.31640625 6.578125 C-1.03761535 4.30649548 -0.61209423 2.20148177 0 0 Z " fill="#7E856B" transform="translate(798,610)"/>
<path d="M0 0 C2.4375 1.125 2.4375 1.125 5 3 C5.8125 6.1875 5.8125 6.1875 6 9 C1.60841671 7.5361389 1.12052567 5.02168662 -1 1 C-0.67 0.67 -0.34 0.34 0 0 Z " fill="#E8D4B6" transform="translate(603,721)"/>
<path d="M0 0 C0.33 0.99 0.66 1.98 1 3 C1.66 3 2.32 3 3 3 C3.33 2.34 3.66 1.68 4 1 C3.37240135 3.92879371 2.41377341 6.36095629 1 9 C0.67 8.01 0.34 7.02 0 6 C-0.66 7.32 -1.32 8.64 -2 10 C-3 8 -3 8 -2.44140625 6.0546875 C-2.15136719 5.33539062 -1.86132812 4.61609375 -1.5625 3.875 C-1.27503906 3.15054688 -0.98757813 2.42609375 -0.69140625 1.6796875 C-0.46324219 1.12539063 -0.23507812 0.57109375 0 0 Z " fill="#777F62" transform="translate(789,644)"/>
<path d="M0 0 C2.02350324 3.03525486 2.32124018 4.19426202 2.625 7.6875 C2.69976563 8.49574219 2.77453125 9.30398438 2.8515625 10.13671875 C2.90054688 10.75160156 2.94953125 11.36648438 3 12 C2.67 11.01 2.34 10.02 2 9 C1.34 9 0.68 9 0 9 C0 10.65 0 12.3 0 14 C-0.33 14 -0.66 14 -1 14 C-0.67 9.38 -0.34 4.76 0 0 Z " fill="#7E846B" transform="translate(890,347)"/>
<path d="M0 0 C1.44715727 3.87186448 0.5441918 6.8232328 -0.4375 10.75 C-0.86869141 12.50570313 -0.86869141 12.50570313 -1.30859375 14.296875 C-1.53675781 15.18890625 -1.76492188 16.0809375 -2 17 C-3.22160225 12.66528234 -3.49303674 8.47841701 -3 4 C-1.5 1.4375 -1.5 1.4375 0 0 Z " fill="#858B73" transform="translate(807,349)"/>
<path d="M0 0 C1 3 1 3 -0.4375 6.1875 C-1.2109375 7.5796875 -1.2109375 7.5796875 -2 9 C-2.66 9 -3.32 9 -4 9 C-3.6875 5.625 -3.6875 5.625 -3 2 C-2.01 1.34 -1.02 0.68 0 0 Z " fill="#676E52" transform="translate(861,261)"/>
<path d="M0 0 C4.62 0 9.24 0 14 0 C14 0.33 14 0.66 14 1 C12.02 1.33 10.04 1.66 8 2 C8.66 2.66 9.32 3.32 10 4 C5.38308839 3.47535095 3.90012114 2.92509086 0 0 Z " fill="#2C2B2B" transform="translate(599,208)"/>
<path d="M0 0 C2.64 1.65 5.28 3.3 8 5 C7.01 5.66 6.02 6.32 5 7 C2.11562221 5.70700306 0.12780579 4.34058637 -2 2 C-1.34 2 -0.68 2 0 2 C0 1.34 0 0.68 0 0 Z " fill="#E6D0B2" transform="translate(667,796)"/>
<path d="M0 0 C6.57142857 4 6.57142857 4 8 8 C6.68 8 5.36 8 4 8 C0 2.88888889 0 2.88888889 0 0 Z " fill="#E2CCAC" transform="translate(597,714)"/>
<path d="M0 0 C1.625 1.625 1.625 1.625 3 4 C2.1875 7.25 2.1875 7.25 1 10 C0.34 10 -0.32 10 -1 10 C-2.46726798 6.18510326 -1.43336419 3.70988378 0 0 Z " fill="#656E51" transform="translate(771,634)"/>
<path d="M0 0 C-1.0625 1.5 -1.0625 1.5 -3 3 C-6.6875 3.1875 -6.6875 3.1875 -10 3 C-10 2.34 -10 1.68 -10 1 C-6.52674819 -0.1577506 -3.63932552 -0.06866652 0 0 Z " fill="#606847" transform="translate(766,715)"/>
<path d="M0 0 C-0.99 0 -1.98 0 -3 0 C-3.33 0.99 -3.66 1.98 -4 3 C-5.98 3.33 -7.96 3.66 -10 4 C-7.10257116 -0.27715685 -5.06635533 -1.57231717 0 0 Z " fill="#5F6547" transform="translate(803,701)"/>
<path d="M0 0 C0.68359375 1.765625 0.68359375 1.765625 1 4 C-0.21484375 5.921875 -0.21484375 5.921875 -1.9375 7.75 C-2.50339844 8.36359375 -3.06929687 8.9771875 -3.65234375 9.609375 C-4.31943359 10.29773438 -4.31943359 10.29773438 -5 11 C-5 7.58678765 -4.33132534 6.60527115 -2.5 3.8125 C-2.0359375 3.09707031 -1.571875 2.38164063 -1.09375 1.64453125 C-0.7328125 1.10183594 -0.371875 0.55914063 0 0 Z " fill="#D7C2A7" transform="translate(893,640)"/>
<path d="M0 0 C2.37948772 0.17625835 3.70225849 0.69719773 5.37890625 2.40234375 C6.62115486 3.90649092 7.81376056 5.45129851 9 7 C8.67 7.66 8.34 8.32 8 9 C7.236875 8.21625 6.47375 7.4325 5.6875 6.625 C3.09108195 3.92742283 3.09108195 3.92742283 0 2 C0 1.34 0 0.68 0 0 Z " fill="#AC967A" transform="translate(478,590)"/>
<path d="M0 0 C0.33 0 0.66 0 1 0 C1.36923077 7.50769231 1.36923077 7.50769231 -0.5 10 C-0.995 10.33 -1.49 10.66 -2 11 C-2.28571429 3.57142857 -2.28571429 3.57142857 0 0 Z " fill="#5C6548" transform="translate(906,560)"/>
<path d="M0 0 C2.04795423 1.9626228 2.94976638 3.4277307 3.19921875 6.26953125 C3.18858877 8.51954383 3.12958525 10.75385562 3 13 C0.62054735 8.24109471 -0.10095578 5.45161235 0 0 Z " fill="#5D6648" transform="translate(898,391)"/>
<path d="M0 0 C0.66 0.33 1.32 0.66 2 1 C2 2.98 2 4.96 2 7 C0.68 7.33 -0.64 7.66 -2 8 C-1.47731534 5.23723823 -0.89130413 2.6739124 0 0 Z " fill="#636B4D" transform="translate(815,311)"/>
<path d="M0 0 C0.99 0 1.98 0 3 0 C2.50168276 3.68754757 1.89932357 5.60490662 -1 8 C-1.125 2.25 -1.125 2.25 0 0 Z " fill="#646D50" transform="translate(850,278)"/>
<path d="M0 0 C0.36923077 5.41538462 0.36923077 5.41538462 -1.5 8.375 C-1.995 8.91125 -2.49 9.4475 -3 10 C-3 7.03 -3 4.06 -3 1 C-1 0 -1 0 0 0 Z " fill="#60684C" transform="translate(881,242)"/>
<path d="M0 0 C0.33 0.66 0.66 1.32 1 2 C0.00390625 3.9453125 0.00390625 3.9453125 -1.4375 6.125 C-1.91058594 6.84945312 -2.38367188 7.57390625 -2.87109375 8.3203125 C-3.24363281 8.87460937 -3.61617187 9.42890625 -4 10 C-4.65234375 8.203125 -4.65234375 8.203125 -5 6 C-3.63510623 3.66629928 -1.8580962 1.99405446 0 0 Z " fill="#DBC19E" transform="translate(870,716)"/>
<path d="M0 0 C3.35595828 0.59927826 5.37801226 1.84622436 8 4 C7.01 4 6.02 4 5 4 C4.67 4.66 4.34 5.32 4 6 C2.62437146 4.71034824 1.29233607 3.37310707 0 2 C0 1.34 0 0.68 0 0 Z " fill="#3F3A35" transform="translate(600,714)"/>
<path d="M0 0 C0 2.64 0 5.28 0 8 C-0.99 8.495 -0.99 8.495 -2 9 C-2 7.68 -2 6.36 -2 5 C-2.66 5.66 -3.32 6.32 -4 7 C-3.625 4.0625 -3.625 4.0625 -3 1 C-1 0 -1 0 0 0 Z " fill="#676F51" transform="translate(804,601)"/>
<path d="M0 0 C0.66 0.33 1.32 0.66 2 1 C2 2.65 2 4.3 2 6 C1.34 6 0.68 6 0 6 C0 7.32 0 8.64 0 10 C-0.66 10 -1.32 10 -2 10 C-1.46274105 6.62294375 -0.88935377 3.303314 0 0 Z " fill="#5F6847" transform="translate(819,299)"/>
<path d="M0 0 C2.10827055 3.16240582 2.33817465 4.50657469 2.625 8.1875 C2.69976563 9.08855469 2.77453125 9.98960937 2.8515625 10.91796875 C2.90054688 11.60503906 2.94953125 12.29210937 3 13 C2.01 13 1.02 13 0 13 C0 8.71 0 4.42 0 0 Z " fill="#81876E" transform="translate(893,360)"/>
<path d="M0 0 C0.66 0 1.32 0 2 0 C1.125 4.75 1.125 4.75 0 7 C-0.99 7 -1.98 7 -3 7 C-3 6.01 -3 5.02 -3 4 C-2.34 4 -1.68 4 -1 4 C-0.67 2.68 -0.34 1.36 0 0 Z " fill="#61684C" transform="translate(843,252)"/>
<path d="M0 0 C1.32 0 2.64 0 4 0 C4 0.99 4 1.98 4 3 C0.535 4.485 0.535 4.485 -3 6 C-2 4 -1 2 0 0 Z " fill="#656C4D" transform="translate(848,231)"/>
<path d="M0 0 C3.3 0 6.6 0 10 0 C9.01 1.485 9.01 1.485 8 3 C5.36 2.67 2.72 2.34 0 2 C0 1.34 0 0.68 0 0 Z " fill="#343434" transform="translate(130,208)"/>
<path d="M0 0 C4.875 4.625 4.875 4.625 6 8 C5.34 8 4.68 8 4 8 C3.67 8.66 3.34 9.32 3 10 C2.690625 8.906875 2.38125 7.81375 2.0625 6.6875 C1.41662103 4.44592006 0.7376883 2.2130649 0 0 Z " fill="#C4B19A" transform="translate(631,757)"/>
<path d="M0 0 C4.875 4.625 4.875 4.625 6 8 C4.68 8.33 3.36 8.66 2 9 C2.04125 8.2575 2.0825 7.515 2.125 6.75 C1.99601866 3.91241048 1.42948778 2.41226062 0 0 Z " fill="#BEAA94" transform="translate(625,749)"/>
<path d="M0 0 C2.5 2.3125 2.5 2.3125 5 5 C5 5.99 5 6.98 5 8 C4.34 7.34 3.68 6.68 3 6 C2.01 6.495 2.01 6.495 1 7 C1 6.34 1 5.68 1 5 C0.34 5 -0.32 5 -1 5 C-0.67 3.35 -0.34 1.7 0 0 Z " fill="#CCB89F" transform="translate(608,726)"/>
<path d="M0 0 C0.66 0 1.32 0 2 0 C1.8125 1.875 1.8125 1.875 1 4 C-1.5625 5.25 -1.5625 5.25 -4 6 C-2.84826645 3.53199953 -1.95216435 1.95216435 0 0 Z " fill="#636A4E" transform="translate(739,689)"/>
<path d="M0 0 C0.99 0 1.98 0 3 0 C1.25 5.75 1.25 5.75 -1 8 C-1.04241723 5.66705225 -1.04092937 3.33297433 -1 1 C-0.67 0.67 -0.34 0.34 0 0 Z " fill="#666F54" transform="translate(761,659)"/>
<path d="M0 0 C0.66 0 1.32 0 2 0 C4.29648649 2.5614657 5 3.47967572 5 7 C4.34 7 3.68 7 3 7 C3 6.34 3 5.68 3 5 C2.34 5 1.68 5 1 5 C0.67 3.35 0.34 1.7 0 0 Z " fill="#F8E2C1" transform="translate(629,757)"/>
<path d="M0 0 C0.33 0.66 0.66 1.32 1 2 C1.66 2 2.32 2 3 2 C3 4.31 3 6.62 3 9 C2.34 9 1.68 9 1 9 C0.67 6.03 0.34 3.06 0 0 Z " fill="#FAE1BE" transform="translate(291,592)"/>
<path d="M0 0 C3 3.75 3 3.75 3 6 C2.01 6.66 1.02 7.32 0 8 C-0.66 8.99 -1.32 9.98 -2 11 C-1 3.57142857 -1 3.57142857 0 0 Z " fill="#7F856C" transform="translate(829,332)"/>
<path d="M0 0 C0.66 0.33 1.32 0.66 2 1 C1.1875 2.9375 1.1875 2.9375 0 5 C-0.99 5.33 -1.98 5.66 -3 6 C-3 4.68 -3 3.36 -3 2 C-2.01 1.34 -1.02 0.68 0 0 Z " fill="#636C4D" transform="translate(743,328)"/>
<path d="M0 0 C1.60031344 3.20062687 0.03173691 5.72271806 -1 9 C-1.66 8.01 -2.32 7.02 -3 6 C-1.65517241 1.65517241 -1.65517241 1.65517241 0 0 Z " fill="#4F583F" transform="translate(883,230)"/>
<path d="M0 0 C0.66 0 1.32 0 2 0 C3.6875 1.8125 3.6875 1.8125 5 4 C4.67 4.99 4.34 5.98 4 7 C2 5.1875 2 5.1875 0 3 C0 2.01 0 1.02 0 0 Z " fill="#F8E2C3" transform="translate(623,749)"/>
<path d="M0 0 C0.93065133 2.60582371 1.14917407 3.64198224 0.0625 6.25 C-0.4634375 7.11625 -0.4634375 7.11625 -1 8 C-1.99 8 -2.98 8 -4 8 C-2.87548273 5.0280615 -1.77706209 2.66559313 0 0 Z " fill="#747B61" transform="translate(777,671)"/>
<path d="M0 0 C1.125 1.75 1.125 1.75 2 4 C1.125 6.25 1.125 6.25 0 8 C-0.66 8 -1.32 8 -2 8 C-1.47731534 5.23723823 -0.89130413 2.6739124 0 0 Z " fill="#5D6547" transform="translate(798,619)"/>
<path d="M0 0 C0.99 0 1.98 0 3 0 C3 1.98 3 3.96 3 6 C2.34 5.01 1.68 4.02 1 3 C0.67 4.65 0.34 6.3 0 8 C-0.33 8 -0.66 8 -1 8 C-1.04241723 5.66705225 -1.04092937 3.33297433 -1 1 C-0.67 0.67 -0.34 0.34 0 0 Z " fill="#6A7253" transform="translate(795,398)"/>
</svg>
